%TF.GenerationSoftware,KiCad,Pcbnew,(5.1.9)-1*%
%TF.CreationDate,2021-04-12T00:41:26-05:00*%
%TF.ProjectId,KFChickenShim,4b464368-6963-46b6-956e-5368696d2e6b,rev?*%
%TF.SameCoordinates,Original*%
%TF.FileFunction,Soldermask,Top*%
%TF.FilePolarity,Negative*%
%FSLAX46Y46*%
G04 Gerber Fmt 4.6, Leading zero omitted, Abs format (unit mm)*
G04 Created by KiCad (PCBNEW (5.1.9)-1) date 2021-04-12 00:41:26*
%MOMM*%
%LPD*%
G01*
G04 APERTURE LIST*
%ADD10R,3.500000X3.500000*%
%ADD11O,1.700000X1.950000*%
%ADD12C,1.800000*%
%ADD13C,2.700000*%
%ADD14C,2.082800*%
%ADD15C,5.283200*%
%ADD16C,1.402080*%
%ADD17C,2.385060*%
%ADD18C,6.400000*%
G04 APERTURE END LIST*
%TO.C,J4*%
G36*
G01*
X59804000Y-136195000D02*
X58054000Y-136195000D01*
G75*
G02*
X57179000Y-135320000I0J875000D01*
G01*
X57179000Y-133570000D01*
G75*
G02*
X58054000Y-132695000I875000J0D01*
G01*
X59804000Y-132695000D01*
G75*
G02*
X60679000Y-133570000I0J-875000D01*
G01*
X60679000Y-135320000D01*
G75*
G02*
X59804000Y-136195000I-875000J0D01*
G01*
G37*
G36*
G01*
X55229000Y-138945000D02*
X53229000Y-138945000D01*
G75*
G02*
X52479000Y-138195000I0J750000D01*
G01*
X52479000Y-136695000D01*
G75*
G02*
X53229000Y-135945000I750000J0D01*
G01*
X55229000Y-135945000D01*
G75*
G02*
X55979000Y-136695000I0J-750000D01*
G01*
X55979000Y-138195000D01*
G75*
G02*
X55229000Y-138945000I-750000J0D01*
G01*
G37*
D10*
X54229000Y-131445000D03*
%TD*%
D11*
%TO.C,J7*%
X114347000Y-120142000D03*
X111847000Y-120142000D03*
G36*
G01*
X108497000Y-120867000D02*
X108497000Y-119417000D01*
G75*
G02*
X108747000Y-119167000I250000J0D01*
G01*
X109947000Y-119167000D01*
G75*
G02*
X110197000Y-119417000I0J-250000D01*
G01*
X110197000Y-120867000D01*
G75*
G02*
X109947000Y-121117000I-250000J0D01*
G01*
X108747000Y-121117000D01*
G75*
G02*
X108497000Y-120867000I0J250000D01*
G01*
G37*
%TD*%
D12*
%TO.C,J5*%
X81400000Y-123230000D03*
X81400000Y-125730000D03*
X83900000Y-123230000D03*
X83900000Y-125730000D03*
X86400000Y-123230000D03*
X86400000Y-125730000D03*
X88900000Y-123230000D03*
G36*
G01*
X89800000Y-125100000D02*
X89800000Y-126360000D01*
G75*
G02*
X89530000Y-126630000I-270000J0D01*
G01*
X88270000Y-126630000D01*
G75*
G02*
X88000000Y-126360000I0J270000D01*
G01*
X88000000Y-125100000D01*
G75*
G02*
X88270000Y-124830000I270000J0D01*
G01*
X89530000Y-124830000D01*
G75*
G02*
X89800000Y-125100000I0J-270000D01*
G01*
G37*
X78900000Y-125730000D03*
X78900000Y-123230000D03*
%TD*%
D13*
%TO.C,J3*%
X70982000Y-109220000D03*
X74942000Y-109220000D03*
X78902000Y-109220000D03*
X82862000Y-109220000D03*
X86822000Y-109220000D03*
X90782000Y-109220000D03*
G36*
G01*
X96092000Y-108120001D02*
X96092000Y-110319999D01*
G75*
G02*
X95841999Y-110570000I-250001J0D01*
G01*
X93642001Y-110570000D01*
G75*
G02*
X93392000Y-110319999I0J250001D01*
G01*
X93392000Y-108120001D01*
G75*
G02*
X93642001Y-107870000I250001J0D01*
G01*
X95841999Y-107870000D01*
G75*
G02*
X96092000Y-108120001I0J-250001D01*
G01*
G37*
%TD*%
%TO.C,J2*%
X43573000Y-121412000D03*
X47533000Y-121412000D03*
X51493000Y-121412000D03*
X55453000Y-121412000D03*
X59413000Y-121412000D03*
G36*
G01*
X64723000Y-120312001D02*
X64723000Y-122511999D01*
G75*
G02*
X64472999Y-122762000I-250001J0D01*
G01*
X62273001Y-122762000D01*
G75*
G02*
X62023000Y-122511999I0J250001D01*
G01*
X62023000Y-120312001D01*
G75*
G02*
X62273001Y-120062000I250001J0D01*
G01*
X64472999Y-120062000D01*
G75*
G02*
X64723000Y-120312001I0J-250001D01*
G01*
G37*
%TD*%
%TO.C,J1*%
G36*
G01*
X90401140Y-133530340D02*
X90401140Y-135409940D01*
G75*
G02*
X90299540Y-135511540I-101600J0D01*
G01*
X88419940Y-135511540D01*
G75*
G02*
X88318340Y-135409940I0J101600D01*
G01*
X88318340Y-133530340D01*
G75*
G02*
X88419940Y-133428740I101600J0D01*
G01*
X90299540Y-133428740D01*
G75*
G02*
X90401140Y-133530340I0J-101600D01*
G01*
G37*
D14*
X86588600Y-134470140D03*
X83820000Y-134470140D03*
X81051400Y-134470140D03*
X78280260Y-134470140D03*
X87967820Y-137309860D03*
X85199220Y-137309860D03*
X82440780Y-137309860D03*
X79672180Y-137309860D03*
D15*
X96319340Y-135890000D03*
X71320660Y-135890000D03*
%TD*%
D16*
%TO.C,J6*%
X111887000Y-136733280D03*
X116885720Y-141732000D03*
X116885720Y-144231360D03*
X106888280Y-144231360D03*
X106888280Y-141732000D03*
D17*
X114386360Y-136733280D03*
X116885720Y-136733280D03*
X111887000Y-141732000D03*
X109387640Y-136733280D03*
X106888280Y-136733280D03*
%TD*%
D18*
%TO.C,H4*%
X124206000Y-103632000D03*
%TD*%
%TO.C,H3*%
X38608000Y-103632000D03*
%TD*%
%TO.C,H2*%
X38608000Y-138811000D03*
%TD*%
%TO.C,H1*%
X124206000Y-138811000D03*
%TD*%
M02*
