M48
; DRILL file {KiCad (5.1.9)-1} date 04/12/21 00:41:21
; FORMAT={-:-/ absolute / inch / decimal}
; #@! TF.CreationDate,2021-04-12T00:41:21-05:00
; #@! TF.GenerationSoftware,Kicad,Pcbnew,(5.1.9)-1
FMAT,2
INCH
T1C0.0354
T2C0.0374
T3C0.0394
T4C0.0400
T5C0.0511
T6C0.0669
T7C0.1260
T8C0.1300
T9C0.0472
%
G90
G05
T1
X3.1063Y-4.8516
X3.1063Y-4.95
X3.2047Y-4.8516
X3.2047Y-4.95
X3.3031Y-4.8516
X3.3031Y-4.95
X3.4016Y-4.8516
X3.4016Y-4.95
X3.5Y-4.8516
X3.5Y-4.95
T2
X4.305Y-4.73
X4.4034Y-4.73
X4.5019Y-4.73
T4
X3.0819Y-5.2941
X3.1367Y-5.4059
X3.191Y-5.2941
X3.2457Y-5.4059
X3.3Y-5.2941
X3.3543Y-5.4059
X3.409Y-5.2941
X3.4633Y-5.4059
X3.5181Y-5.2941
T5
X4.2082Y-5.3832
X4.3066Y-5.3832
X4.405Y-5.58
X4.5034Y-5.3832
X4.6018Y-5.3832
T6
X1.7155Y-4.78
X1.8714Y-4.78
X2.0273Y-4.78
X2.1832Y-4.78
X2.3391Y-4.78
X2.495Y-4.78
X2.7946Y-4.3
X2.9505Y-4.3
X3.1064Y-4.3
X3.2623Y-4.3
X3.4182Y-4.3
X3.5741Y-4.3
X3.73Y-4.3
T7
X1.52Y-4.08
X1.52Y-5.465
X4.89Y-4.08
X4.89Y-5.465
T8
X2.8079Y-5.35
X3.7921Y-5.35
T9
X4.2082Y-5.58
X4.2082Y-5.6784
X4.405Y-5.3832
X4.6018Y-5.58
X4.6018Y-5.6784
T3
G00X2.0956Y-5.175
M15
G01X2.1744Y-5.175
M16
G05
G00X2.0956Y-5.4112
M15
G01X2.1744Y-5.4112
M16
G05
G00X2.32Y-5.3325
M15
G01X2.32Y-5.2537
M16
G05
T0
M30
