%TF.GenerationSoftware,KiCad,Pcbnew,(5.1.9)-1*%
%TF.CreationDate,2021-04-12T00:41:26-05:00*%
%TF.ProjectId,KFChickenShim,4b464368-6963-46b6-956e-5368696d2e6b,rev?*%
%TF.SameCoordinates,Original*%
%TF.FileFunction,Copper,L1,Top*%
%TF.FilePolarity,Positive*%
%FSLAX46Y46*%
G04 Gerber Fmt 4.6, Leading zero omitted, Abs format (unit mm)*
G04 Created by KiCad (PCBNEW (5.1.9)-1) date 2021-04-12 00:41:26*
%MOMM*%
%LPD*%
G01*
G04 APERTURE LIST*
%TA.AperFunction,ComponentPad*%
%ADD10R,3.500000X3.500000*%
%TD*%
%TA.AperFunction,ComponentPad*%
%ADD11O,1.700000X1.950000*%
%TD*%
%TA.AperFunction,ComponentPad*%
%ADD12C,1.800000*%
%TD*%
%TA.AperFunction,ComponentPad*%
%ADD13C,2.700000*%
%TD*%
%TA.AperFunction,ComponentPad*%
%ADD14R,1.879600X1.879600*%
%TD*%
%TA.AperFunction,ComponentPad*%
%ADD15C,1.879600*%
%TD*%
%TA.AperFunction,ComponentPad*%
%ADD16C,5.080000*%
%TD*%
%TA.AperFunction,ComponentPad*%
%ADD17C,2.181860*%
%TD*%
%TA.AperFunction,ComponentPad*%
%ADD18C,6.400000*%
%TD*%
%TA.AperFunction,Conductor*%
%ADD19C,1.000000*%
%TD*%
%TA.AperFunction,Conductor*%
%ADD20C,1.500000*%
%TD*%
%TA.AperFunction,Conductor*%
%ADD21C,0.500000*%
%TD*%
G04 APERTURE END LIST*
%TO.P,J4,3*%
%TO.N,N/C*%
%TA.AperFunction,ComponentPad*%
G36*
G01*
X59804000Y-136195000D02*
X58054000Y-136195000D01*
G75*
G02*
X57179000Y-135320000I0J875000D01*
G01*
X57179000Y-133570000D01*
G75*
G02*
X58054000Y-132695000I875000J0D01*
G01*
X59804000Y-132695000D01*
G75*
G02*
X60679000Y-133570000I0J-875000D01*
G01*
X60679000Y-135320000D01*
G75*
G02*
X59804000Y-136195000I-875000J0D01*
G01*
G37*
%TD.AperFunction*%
%TO.P,J4,2*%
%TO.N,GND*%
%TA.AperFunction,ComponentPad*%
G36*
G01*
X55229000Y-138945000D02*
X53229000Y-138945000D01*
G75*
G02*
X52479000Y-138195000I0J750000D01*
G01*
X52479000Y-136695000D01*
G75*
G02*
X53229000Y-135945000I750000J0D01*
G01*
X55229000Y-135945000D01*
G75*
G02*
X55979000Y-136695000I0J-750000D01*
G01*
X55979000Y-138195000D01*
G75*
G02*
X55229000Y-138945000I-750000J0D01*
G01*
G37*
%TD.AperFunction*%
D10*
%TO.P,J4,1*%
%TO.N,+12V*%
X54229000Y-131445000D03*
%TD*%
D11*
%TO.P,J7,3*%
%TO.N,/AUX_LEFT*%
X114347000Y-120142000D03*
%TO.P,J7,2*%
%TO.N,/AUX_GND*%
X111847000Y-120142000D03*
%TO.P,J7,1*%
%TO.N,/AUX_RIGHT*%
%TA.AperFunction,ComponentPad*%
G36*
G01*
X108497000Y-120867000D02*
X108497000Y-119417000D01*
G75*
G02*
X108747000Y-119167000I250000J0D01*
G01*
X109947000Y-119167000D01*
G75*
G02*
X110197000Y-119417000I0J-250000D01*
G01*
X110197000Y-120867000D01*
G75*
G02*
X109947000Y-121117000I-250000J0D01*
G01*
X108747000Y-121117000D01*
G75*
G02*
X108497000Y-120867000I0J250000D01*
G01*
G37*
%TD.AperFunction*%
%TD*%
D12*
%TO.P,J5,8*%
%TO.N,Net-(J5-Pad8)*%
X81400000Y-123230000D03*
%TO.P,J5,7*%
%TO.N,Net-(J5-Pad7)*%
X81400000Y-125730000D03*
%TO.P,J5,6*%
%TO.N,/DB9_TX*%
X83900000Y-123230000D03*
%TO.P,J5,5*%
%TO.N,Net-(J5-Pad5)*%
X83900000Y-125730000D03*
%TO.P,J5,4*%
%TO.N,/DB9_RX*%
X86400000Y-123230000D03*
%TO.P,J5,3*%
%TO.N,Net-(J5-Pad3)*%
X86400000Y-125730000D03*
%TO.P,J5,2*%
%TO.N,Net-(J5-Pad2)*%
X88900000Y-123230000D03*
%TO.P,J5,1*%
%TO.N,Net-(J5-Pad1)*%
%TA.AperFunction,ComponentPad*%
G36*
G01*
X89800000Y-125100000D02*
X89800000Y-126360000D01*
G75*
G02*
X89530000Y-126630000I-270000J0D01*
G01*
X88270000Y-126630000D01*
G75*
G02*
X88000000Y-126360000I0J270000D01*
G01*
X88000000Y-125100000D01*
G75*
G02*
X88270000Y-124830000I270000J0D01*
G01*
X89530000Y-124830000D01*
G75*
G02*
X89800000Y-125100000I0J-270000D01*
G01*
G37*
%TD.AperFunction*%
%TO.P,J5,9*%
%TO.N,Net-(J5-Pad9)*%
X78900000Y-125730000D03*
%TO.P,J5,10*%
%TO.N,GND*%
X78900000Y-123230000D03*
%TD*%
D13*
%TO.P,J3,7*%
%TO.N,GND*%
X70982000Y-109220000D03*
%TO.P,J3,6*%
X74942000Y-109220000D03*
%TO.P,J3,5*%
X78902000Y-109220000D03*
%TO.P,J3,4*%
X82862000Y-109220000D03*
%TO.P,J3,3*%
X86822000Y-109220000D03*
%TO.P,J3,2*%
X90782000Y-109220000D03*
%TO.P,J3,1*%
%TA.AperFunction,ComponentPad*%
G36*
G01*
X96092000Y-108120001D02*
X96092000Y-110319999D01*
G75*
G02*
X95841999Y-110570000I-250001J0D01*
G01*
X93642001Y-110570000D01*
G75*
G02*
X93392000Y-110319999I0J250001D01*
G01*
X93392000Y-108120001D01*
G75*
G02*
X93642001Y-107870000I250001J0D01*
G01*
X95841999Y-107870000D01*
G75*
G02*
X96092000Y-108120001I0J-250001D01*
G01*
G37*
%TD.AperFunction*%
%TD*%
%TO.P,J2,6*%
%TO.N,+12V*%
X43573000Y-121412000D03*
%TO.P,J2,5*%
X47533000Y-121412000D03*
%TO.P,J2,4*%
X51493000Y-121412000D03*
%TO.P,J2,3*%
X55453000Y-121412000D03*
%TO.P,J2,2*%
X59413000Y-121412000D03*
%TO.P,J2,1*%
%TA.AperFunction,ComponentPad*%
G36*
G01*
X64723000Y-120312001D02*
X64723000Y-122511999D01*
G75*
G02*
X64472999Y-122762000I-250001J0D01*
G01*
X62273001Y-122762000D01*
G75*
G02*
X62023000Y-122511999I0J250001D01*
G01*
X62023000Y-120312001D01*
G75*
G02*
X62273001Y-120062000I250001J0D01*
G01*
X64472999Y-120062000D01*
G75*
G02*
X64723000Y-120312001I0J-250001D01*
G01*
G37*
%TD.AperFunction*%
%TD*%
D14*
%TO.P,J1,1*%
%TO.N,Net-(J1-Pad1)*%
X89359740Y-134470140D03*
D15*
%TO.P,J1,2*%
%TO.N,/DB9_RX*%
X86588600Y-134470140D03*
%TO.P,J1,3*%
%TO.N,/DB9_TX*%
X83820000Y-134470140D03*
%TO.P,J1,4*%
%TO.N,Net-(J1-Pad4)*%
X81051400Y-134470140D03*
%TO.P,J1,5*%
%TO.N,GND*%
X78280260Y-134470140D03*
%TO.P,J1,6*%
%TO.N,Net-(J1-Pad6)*%
X87967820Y-137309860D03*
%TO.P,J1,7*%
%TO.N,Net-(J1-Pad7)*%
X85199220Y-137309860D03*
%TO.P,J1,8*%
%TO.N,Net-(J1-Pad8)*%
X82440780Y-137309860D03*
%TO.P,J1,9*%
%TO.N,Net-(J1-Pad9)*%
X79672180Y-137309860D03*
D16*
%TO.P,J1,G1*%
%TO.N,N/C*%
X96319340Y-135890000D03*
%TO.P,J1,G2*%
X71320660Y-135890000D03*
%TD*%
D17*
%TO.P,J6,TSH*%
%TO.N,/AUX_LEFT*%
X114386360Y-136733280D03*
%TO.P,J6,TIP*%
X116885720Y-136733280D03*
%TO.P,J6,SLEE*%
%TO.N,/AUX_GND*%
X111887000Y-141732000D03*
%TO.P,J6,RSH*%
%TO.N,/AUX_RIGHT*%
X109387640Y-136733280D03*
%TO.P,J6,RING*%
X106888280Y-136733280D03*
%TD*%
D18*
%TO.P,H4,1*%
%TO.N,N/C*%
X124206000Y-103632000D03*
%TD*%
%TO.P,H3,1*%
%TO.N,N/C*%
X38608000Y-103632000D03*
%TD*%
%TO.P,H2,1*%
%TO.N,N/C*%
X38608000Y-138811000D03*
%TD*%
%TO.P,H1,1*%
%TO.N,N/C*%
X124206000Y-138811000D03*
%TD*%
D19*
%TO.N,/DB9_TX*%
X81429860Y-132080000D02*
X83820000Y-134470140D01*
X76200000Y-130048000D02*
X78232000Y-132080000D01*
X76200000Y-121158000D02*
X76200000Y-130048000D01*
X76962000Y-120396000D02*
X76200000Y-121158000D01*
X78232000Y-132080000D02*
X81429860Y-132080000D01*
X82837000Y-120396000D02*
X76962000Y-120396000D01*
X83900000Y-121459000D02*
X82837000Y-120396000D01*
X83900000Y-123230000D02*
X83900000Y-121459000D01*
%TO.N,/DB9_RX*%
X87884000Y-131318000D02*
X86588600Y-132613400D01*
X92583000Y-129413000D02*
X90678000Y-131318000D01*
X90678000Y-131318000D02*
X87884000Y-131318000D01*
X92583000Y-121412000D02*
X92583000Y-129413000D01*
X86588600Y-132613400D02*
X86588600Y-134470140D01*
X91567000Y-120396000D02*
X92583000Y-121412000D01*
X87376000Y-120396000D02*
X91567000Y-120396000D01*
X86400000Y-121372000D02*
X87376000Y-120396000D01*
X86400000Y-123230000D02*
X86400000Y-121372000D01*
D20*
%TO.N,+12V*%
X43573000Y-121412000D02*
X63373000Y-121412000D01*
X53340000Y-131191000D02*
X45212000Y-131191000D01*
X43573000Y-129552000D02*
X43573000Y-121412000D01*
X45212000Y-131191000D02*
X43573000Y-129552000D01*
D21*
%TO.N,/AUX_RIGHT*%
X106888280Y-136733280D02*
X109387640Y-136733280D01*
X109387640Y-120182640D02*
X109347000Y-120142000D01*
D19*
X109387640Y-136733280D02*
X109387640Y-120182640D01*
D21*
%TO.N,/AUX_LEFT*%
X114347000Y-136693920D02*
X114386360Y-136733280D01*
D19*
X114347000Y-120142000D02*
X114347000Y-136693920D01*
D21*
X114386360Y-136733280D02*
X116885720Y-136733280D01*
D19*
%TO.N,/AUX_GND*%
X111847000Y-120142000D02*
X111847000Y-117435000D01*
X111847000Y-117435000D02*
X110109000Y-115697000D01*
X110109000Y-115697000D02*
X104902000Y-115697000D01*
X104902000Y-115697000D02*
X103378000Y-117221000D01*
X103378000Y-117221000D02*
X103378000Y-138176000D01*
X103378000Y-138176000D02*
X104775000Y-139573000D01*
X109728000Y-139573000D02*
X111887000Y-141732000D01*
X104775000Y-139573000D02*
X109728000Y-139573000D01*
%TD*%
M02*
