%TF.GenerationSoftware,KiCad,Pcbnew,(5.1.9)-1*%
%TF.CreationDate,2021-04-12T00:41:26-05:00*%
%TF.ProjectId,KFChickenShim,4b464368-6963-46b6-956e-5368696d2e6b,rev?*%
%TF.SameCoordinates,Original*%
%TF.FileFunction,Copper,L2,Bot*%
%TF.FilePolarity,Positive*%
%FSLAX46Y46*%
G04 Gerber Fmt 4.6, Leading zero omitted, Abs format (unit mm)*
G04 Created by KiCad (PCBNEW (5.1.9)-1) date 2021-04-12 00:41:26*
%MOMM*%
%LPD*%
G01*
G04 APERTURE LIST*
%TA.AperFunction,ComponentPad*%
%ADD10R,3.500000X3.500000*%
%TD*%
%TA.AperFunction,ComponentPad*%
%ADD11O,1.700000X1.950000*%
%TD*%
%TA.AperFunction,ComponentPad*%
%ADD12C,1.800000*%
%TD*%
%TA.AperFunction,ComponentPad*%
%ADD13C,2.700000*%
%TD*%
%TA.AperFunction,ComponentPad*%
%ADD14R,1.879600X1.879600*%
%TD*%
%TA.AperFunction,ComponentPad*%
%ADD15C,1.879600*%
%TD*%
%TA.AperFunction,ComponentPad*%
%ADD16C,5.080000*%
%TD*%
%TA.AperFunction,ComponentPad*%
%ADD17C,2.181860*%
%TD*%
%TA.AperFunction,ComponentPad*%
%ADD18C,6.400000*%
%TD*%
%TA.AperFunction,Conductor*%
%ADD19C,0.254000*%
%TD*%
%TA.AperFunction,Conductor*%
%ADD20C,0.100000*%
%TD*%
G04 APERTURE END LIST*
%TO.P,J4,3*%
%TO.N,N/C*%
%TA.AperFunction,ComponentPad*%
G36*
G01*
X59804000Y-136195000D02*
X58054000Y-136195000D01*
G75*
G02*
X57179000Y-135320000I0J875000D01*
G01*
X57179000Y-133570000D01*
G75*
G02*
X58054000Y-132695000I875000J0D01*
G01*
X59804000Y-132695000D01*
G75*
G02*
X60679000Y-133570000I0J-875000D01*
G01*
X60679000Y-135320000D01*
G75*
G02*
X59804000Y-136195000I-875000J0D01*
G01*
G37*
%TD.AperFunction*%
%TO.P,J4,2*%
%TO.N,GND*%
%TA.AperFunction,ComponentPad*%
G36*
G01*
X55229000Y-138945000D02*
X53229000Y-138945000D01*
G75*
G02*
X52479000Y-138195000I0J750000D01*
G01*
X52479000Y-136695000D01*
G75*
G02*
X53229000Y-135945000I750000J0D01*
G01*
X55229000Y-135945000D01*
G75*
G02*
X55979000Y-136695000I0J-750000D01*
G01*
X55979000Y-138195000D01*
G75*
G02*
X55229000Y-138945000I-750000J0D01*
G01*
G37*
%TD.AperFunction*%
D10*
%TO.P,J4,1*%
%TO.N,+12V*%
X54229000Y-131445000D03*
%TD*%
D11*
%TO.P,J7,3*%
%TO.N,/AUX_LEFT*%
X114347000Y-120142000D03*
%TO.P,J7,2*%
%TO.N,/AUX_GND*%
X111847000Y-120142000D03*
%TO.P,J7,1*%
%TO.N,/AUX_RIGHT*%
%TA.AperFunction,ComponentPad*%
G36*
G01*
X108497000Y-120867000D02*
X108497000Y-119417000D01*
G75*
G02*
X108747000Y-119167000I250000J0D01*
G01*
X109947000Y-119167000D01*
G75*
G02*
X110197000Y-119417000I0J-250000D01*
G01*
X110197000Y-120867000D01*
G75*
G02*
X109947000Y-121117000I-250000J0D01*
G01*
X108747000Y-121117000D01*
G75*
G02*
X108497000Y-120867000I0J250000D01*
G01*
G37*
%TD.AperFunction*%
%TD*%
D12*
%TO.P,J5,8*%
%TO.N,Net-(J5-Pad8)*%
X81400000Y-123230000D03*
%TO.P,J5,7*%
%TO.N,Net-(J5-Pad7)*%
X81400000Y-125730000D03*
%TO.P,J5,6*%
%TO.N,/DB9_TX*%
X83900000Y-123230000D03*
%TO.P,J5,5*%
%TO.N,Net-(J5-Pad5)*%
X83900000Y-125730000D03*
%TO.P,J5,4*%
%TO.N,/DB9_RX*%
X86400000Y-123230000D03*
%TO.P,J5,3*%
%TO.N,Net-(J5-Pad3)*%
X86400000Y-125730000D03*
%TO.P,J5,2*%
%TO.N,Net-(J5-Pad2)*%
X88900000Y-123230000D03*
%TO.P,J5,1*%
%TO.N,Net-(J5-Pad1)*%
%TA.AperFunction,ComponentPad*%
G36*
G01*
X89800000Y-125100000D02*
X89800000Y-126360000D01*
G75*
G02*
X89530000Y-126630000I-270000J0D01*
G01*
X88270000Y-126630000D01*
G75*
G02*
X88000000Y-126360000I0J270000D01*
G01*
X88000000Y-125100000D01*
G75*
G02*
X88270000Y-124830000I270000J0D01*
G01*
X89530000Y-124830000D01*
G75*
G02*
X89800000Y-125100000I0J-270000D01*
G01*
G37*
%TD.AperFunction*%
%TO.P,J5,9*%
%TO.N,Net-(J5-Pad9)*%
X78900000Y-125730000D03*
%TO.P,J5,10*%
%TO.N,GND*%
X78900000Y-123230000D03*
%TD*%
D13*
%TO.P,J3,7*%
%TO.N,GND*%
X70982000Y-109220000D03*
%TO.P,J3,6*%
X74942000Y-109220000D03*
%TO.P,J3,5*%
X78902000Y-109220000D03*
%TO.P,J3,4*%
X82862000Y-109220000D03*
%TO.P,J3,3*%
X86822000Y-109220000D03*
%TO.P,J3,2*%
X90782000Y-109220000D03*
%TO.P,J3,1*%
%TA.AperFunction,ComponentPad*%
G36*
G01*
X96092000Y-108120001D02*
X96092000Y-110319999D01*
G75*
G02*
X95841999Y-110570000I-250001J0D01*
G01*
X93642001Y-110570000D01*
G75*
G02*
X93392000Y-110319999I0J250001D01*
G01*
X93392000Y-108120001D01*
G75*
G02*
X93642001Y-107870000I250001J0D01*
G01*
X95841999Y-107870000D01*
G75*
G02*
X96092000Y-108120001I0J-250001D01*
G01*
G37*
%TD.AperFunction*%
%TD*%
%TO.P,J2,6*%
%TO.N,+12V*%
X43573000Y-121412000D03*
%TO.P,J2,5*%
X47533000Y-121412000D03*
%TO.P,J2,4*%
X51493000Y-121412000D03*
%TO.P,J2,3*%
X55453000Y-121412000D03*
%TO.P,J2,2*%
X59413000Y-121412000D03*
%TO.P,J2,1*%
%TA.AperFunction,ComponentPad*%
G36*
G01*
X64723000Y-120312001D02*
X64723000Y-122511999D01*
G75*
G02*
X64472999Y-122762000I-250001J0D01*
G01*
X62273001Y-122762000D01*
G75*
G02*
X62023000Y-122511999I0J250001D01*
G01*
X62023000Y-120312001D01*
G75*
G02*
X62273001Y-120062000I250001J0D01*
G01*
X64472999Y-120062000D01*
G75*
G02*
X64723000Y-120312001I0J-250001D01*
G01*
G37*
%TD.AperFunction*%
%TD*%
D14*
%TO.P,J1,1*%
%TO.N,Net-(J1-Pad1)*%
X89359740Y-134470140D03*
D15*
%TO.P,J1,2*%
%TO.N,/DB9_RX*%
X86588600Y-134470140D03*
%TO.P,J1,3*%
%TO.N,/DB9_TX*%
X83820000Y-134470140D03*
%TO.P,J1,4*%
%TO.N,Net-(J1-Pad4)*%
X81051400Y-134470140D03*
%TO.P,J1,5*%
%TO.N,GND*%
X78280260Y-134470140D03*
%TO.P,J1,6*%
%TO.N,Net-(J1-Pad6)*%
X87967820Y-137309860D03*
%TO.P,J1,7*%
%TO.N,Net-(J1-Pad7)*%
X85199220Y-137309860D03*
%TO.P,J1,8*%
%TO.N,Net-(J1-Pad8)*%
X82440780Y-137309860D03*
%TO.P,J1,9*%
%TO.N,Net-(J1-Pad9)*%
X79672180Y-137309860D03*
D16*
%TO.P,J1,G1*%
%TO.N,N/C*%
X96319340Y-135890000D03*
%TO.P,J1,G2*%
X71320660Y-135890000D03*
%TD*%
D17*
%TO.P,J6,TSH*%
%TO.N,/AUX_LEFT*%
X114386360Y-136733280D03*
%TO.P,J6,TIP*%
X116885720Y-136733280D03*
%TO.P,J6,SLEE*%
%TO.N,/AUX_GND*%
X111887000Y-141732000D03*
%TO.P,J6,RSH*%
%TO.N,/AUX_RIGHT*%
X109387640Y-136733280D03*
%TO.P,J6,RING*%
X106888280Y-136733280D03*
%TD*%
D18*
%TO.P,H4,1*%
%TO.N,N/C*%
X124206000Y-103632000D03*
%TD*%
%TO.P,H3,1*%
%TO.N,N/C*%
X38608000Y-103632000D03*
%TD*%
%TO.P,H2,1*%
%TO.N,N/C*%
X38608000Y-138811000D03*
%TD*%
%TO.P,H1,1*%
%TO.N,N/C*%
X124206000Y-138811000D03*
%TD*%
D19*
%TO.N,GND*%
X129794000Y-144526000D02*
X118085736Y-144526000D01*
X118120160Y-144352942D01*
X118120160Y-144109778D01*
X118072721Y-143871287D01*
X117979667Y-143646633D01*
X117844572Y-143444450D01*
X117672630Y-143272508D01*
X117470447Y-143137413D01*
X117245793Y-143044359D01*
X117007302Y-142996920D01*
X116764138Y-142996920D01*
X116525647Y-143044359D01*
X116300993Y-143137413D01*
X116098810Y-143272508D01*
X115926868Y-143444450D01*
X115791773Y-143646633D01*
X115698719Y-143871287D01*
X115651280Y-144109778D01*
X115651280Y-144352942D01*
X115685704Y-144526000D01*
X108088296Y-144526000D01*
X108122720Y-144352942D01*
X108122720Y-144109778D01*
X108075281Y-143871287D01*
X107982227Y-143646633D01*
X107847132Y-143444450D01*
X107675190Y-143272508D01*
X107473007Y-143137413D01*
X107248353Y-143044359D01*
X107009862Y-142996920D01*
X106766698Y-142996920D01*
X106528207Y-143044359D01*
X106303553Y-143137413D01*
X106101370Y-143272508D01*
X105929428Y-143444450D01*
X105794333Y-143646633D01*
X105701279Y-143871287D01*
X105653840Y-144109778D01*
X105653840Y-144352942D01*
X105688264Y-144526000D01*
X33528000Y-144526000D01*
X33528000Y-138433285D01*
X34773000Y-138433285D01*
X34773000Y-139188715D01*
X34920377Y-139929628D01*
X35209467Y-140627554D01*
X35629161Y-141255670D01*
X36163330Y-141789839D01*
X36791446Y-142209533D01*
X37489372Y-142498623D01*
X38230285Y-142646000D01*
X38985715Y-142646000D01*
X39726628Y-142498623D01*
X40424554Y-142209533D01*
X41052670Y-141789839D01*
X41232091Y-141610418D01*
X105653840Y-141610418D01*
X105653840Y-141853582D01*
X105701279Y-142092073D01*
X105794333Y-142316727D01*
X105929428Y-142518910D01*
X106101370Y-142690852D01*
X106303553Y-142825947D01*
X106528207Y-142919001D01*
X106766698Y-142966440D01*
X107009862Y-142966440D01*
X107248353Y-142919001D01*
X107473007Y-142825947D01*
X107675190Y-142690852D01*
X107847132Y-142518910D01*
X107982227Y-142316727D01*
X108075281Y-142092073D01*
X108122720Y-141853582D01*
X108122720Y-141610418D01*
X108113092Y-141562011D01*
X110161070Y-141562011D01*
X110161070Y-141901989D01*
X110227397Y-142235435D01*
X110357501Y-142549534D01*
X110546383Y-142832216D01*
X110786784Y-143072617D01*
X111069466Y-143261499D01*
X111383565Y-143391603D01*
X111717011Y-143457930D01*
X112056989Y-143457930D01*
X112390435Y-143391603D01*
X112704534Y-143261499D01*
X112987216Y-143072617D01*
X113227617Y-142832216D01*
X113416499Y-142549534D01*
X113546603Y-142235435D01*
X113612930Y-141901989D01*
X113612930Y-141610418D01*
X115651280Y-141610418D01*
X115651280Y-141853582D01*
X115698719Y-142092073D01*
X115791773Y-142316727D01*
X115926868Y-142518910D01*
X116098810Y-142690852D01*
X116300993Y-142825947D01*
X116525647Y-142919001D01*
X116764138Y-142966440D01*
X117007302Y-142966440D01*
X117245793Y-142919001D01*
X117470447Y-142825947D01*
X117672630Y-142690852D01*
X117844572Y-142518910D01*
X117979667Y-142316727D01*
X118072721Y-142092073D01*
X118120160Y-141853582D01*
X118120160Y-141610418D01*
X118072721Y-141371927D01*
X117979667Y-141147273D01*
X117844572Y-140945090D01*
X117672630Y-140773148D01*
X117470447Y-140638053D01*
X117245793Y-140544999D01*
X117007302Y-140497560D01*
X116764138Y-140497560D01*
X116525647Y-140544999D01*
X116300993Y-140638053D01*
X116098810Y-140773148D01*
X115926868Y-140945090D01*
X115791773Y-141147273D01*
X115698719Y-141371927D01*
X115651280Y-141610418D01*
X113612930Y-141610418D01*
X113612930Y-141562011D01*
X113546603Y-141228565D01*
X113416499Y-140914466D01*
X113227617Y-140631784D01*
X112987216Y-140391383D01*
X112704534Y-140202501D01*
X112390435Y-140072397D01*
X112056989Y-140006070D01*
X111717011Y-140006070D01*
X111383565Y-140072397D01*
X111069466Y-140202501D01*
X110786784Y-140391383D01*
X110546383Y-140631784D01*
X110357501Y-140914466D01*
X110227397Y-141228565D01*
X110161070Y-141562011D01*
X108113092Y-141562011D01*
X108075281Y-141371927D01*
X107982227Y-141147273D01*
X107847132Y-140945090D01*
X107675190Y-140773148D01*
X107473007Y-140638053D01*
X107248353Y-140544999D01*
X107009862Y-140497560D01*
X106766698Y-140497560D01*
X106528207Y-140544999D01*
X106303553Y-140638053D01*
X106101370Y-140773148D01*
X105929428Y-140945090D01*
X105794333Y-141147273D01*
X105701279Y-141371927D01*
X105653840Y-141610418D01*
X41232091Y-141610418D01*
X41586839Y-141255670D01*
X42006533Y-140627554D01*
X42295623Y-139929628D01*
X42443000Y-139188715D01*
X42443000Y-138945000D01*
X51840928Y-138945000D01*
X51853188Y-139069482D01*
X51889498Y-139189180D01*
X51948463Y-139299494D01*
X52027815Y-139396185D01*
X52124506Y-139475537D01*
X52234820Y-139534502D01*
X52354518Y-139570812D01*
X52479000Y-139583072D01*
X53943250Y-139580000D01*
X54102000Y-139421250D01*
X54102000Y-137572000D01*
X54356000Y-137572000D01*
X54356000Y-139421250D01*
X54514750Y-139580000D01*
X55979000Y-139583072D01*
X56103482Y-139570812D01*
X56223180Y-139534502D01*
X56333494Y-139475537D01*
X56430185Y-139396185D01*
X56509537Y-139299494D01*
X56568502Y-139189180D01*
X56604812Y-139069482D01*
X56617072Y-138945000D01*
X56614000Y-137730750D01*
X56455250Y-137572000D01*
X54356000Y-137572000D01*
X54102000Y-137572000D01*
X52002750Y-137572000D01*
X51844000Y-137730750D01*
X51840928Y-138945000D01*
X42443000Y-138945000D01*
X42443000Y-138433285D01*
X42295623Y-137692372D01*
X42006533Y-136994446D01*
X41586839Y-136366330D01*
X41165509Y-135945000D01*
X51840928Y-135945000D01*
X51844000Y-137159250D01*
X52002750Y-137318000D01*
X54102000Y-137318000D01*
X54102000Y-135468750D01*
X54356000Y-135468750D01*
X54356000Y-137318000D01*
X56455250Y-137318000D01*
X56614000Y-137159250D01*
X56617072Y-135945000D01*
X56604812Y-135820518D01*
X56568502Y-135700820D01*
X56509537Y-135590506D01*
X56430185Y-135493815D01*
X56333494Y-135414463D01*
X56223180Y-135355498D01*
X56103482Y-135319188D01*
X55979000Y-135306928D01*
X54514750Y-135310000D01*
X54356000Y-135468750D01*
X54102000Y-135468750D01*
X53943250Y-135310000D01*
X52479000Y-135306928D01*
X52354518Y-135319188D01*
X52234820Y-135355498D01*
X52124506Y-135414463D01*
X52027815Y-135493815D01*
X51948463Y-135590506D01*
X51889498Y-135700820D01*
X51853188Y-135820518D01*
X51840928Y-135945000D01*
X41165509Y-135945000D01*
X41052670Y-135832161D01*
X40424554Y-135412467D01*
X39726628Y-135123377D01*
X38985715Y-134976000D01*
X38230285Y-134976000D01*
X37489372Y-135123377D01*
X36791446Y-135412467D01*
X36163330Y-135832161D01*
X35629161Y-136366330D01*
X35209467Y-136994446D01*
X34920377Y-137692372D01*
X34773000Y-138433285D01*
X33528000Y-138433285D01*
X33528000Y-129695000D01*
X51840928Y-129695000D01*
X51840928Y-133195000D01*
X51853188Y-133319482D01*
X51889498Y-133439180D01*
X51948463Y-133549494D01*
X52027815Y-133646185D01*
X52124506Y-133725537D01*
X52234820Y-133784502D01*
X52354518Y-133820812D01*
X52479000Y-133833072D01*
X55979000Y-133833072D01*
X56103482Y-133820812D01*
X56223180Y-133784502D01*
X56333494Y-133725537D01*
X56430185Y-133646185D01*
X56509537Y-133549494D01*
X56550494Y-133472869D01*
X56540928Y-133570000D01*
X56540928Y-135320000D01*
X56570001Y-135615186D01*
X56656104Y-135899028D01*
X56795927Y-136160618D01*
X56984097Y-136389903D01*
X57213382Y-136578073D01*
X57474972Y-136717896D01*
X57758814Y-136803999D01*
X58054000Y-136833072D01*
X59804000Y-136833072D01*
X60099186Y-136803999D01*
X60383028Y-136717896D01*
X60644618Y-136578073D01*
X60873903Y-136389903D01*
X61062073Y-136160618D01*
X61201896Y-135899028D01*
X61287999Y-135615186D01*
X61291731Y-135577290D01*
X68145660Y-135577290D01*
X68145660Y-136202710D01*
X68267674Y-136816113D01*
X68507012Y-137393926D01*
X68854477Y-137913944D01*
X69296716Y-138356183D01*
X69816734Y-138703648D01*
X70394547Y-138942986D01*
X71007950Y-139065000D01*
X71633370Y-139065000D01*
X72246773Y-138942986D01*
X72824586Y-138703648D01*
X73344604Y-138356183D01*
X73786843Y-137913944D01*
X74134308Y-137393926D01*
X74233375Y-137154756D01*
X78097380Y-137154756D01*
X78097380Y-137464964D01*
X78157898Y-137769212D01*
X78276610Y-138055808D01*
X78448953Y-138313737D01*
X78668303Y-138533087D01*
X78926232Y-138705430D01*
X79212828Y-138824142D01*
X79517076Y-138884660D01*
X79827284Y-138884660D01*
X80131532Y-138824142D01*
X80418128Y-138705430D01*
X80676057Y-138533087D01*
X80895407Y-138313737D01*
X81056480Y-138072675D01*
X81217553Y-138313737D01*
X81436903Y-138533087D01*
X81694832Y-138705430D01*
X81981428Y-138824142D01*
X82285676Y-138884660D01*
X82595884Y-138884660D01*
X82900132Y-138824142D01*
X83186728Y-138705430D01*
X83444657Y-138533087D01*
X83664007Y-138313737D01*
X83820000Y-138080277D01*
X83975993Y-138313737D01*
X84195343Y-138533087D01*
X84453272Y-138705430D01*
X84739868Y-138824142D01*
X85044116Y-138884660D01*
X85354324Y-138884660D01*
X85658572Y-138824142D01*
X85945168Y-138705430D01*
X86203097Y-138533087D01*
X86422447Y-138313737D01*
X86583520Y-138072675D01*
X86744593Y-138313737D01*
X86963943Y-138533087D01*
X87221872Y-138705430D01*
X87508468Y-138824142D01*
X87812716Y-138884660D01*
X88122924Y-138884660D01*
X88427172Y-138824142D01*
X88713768Y-138705430D01*
X88971697Y-138533087D01*
X89191047Y-138313737D01*
X89363390Y-138055808D01*
X89482102Y-137769212D01*
X89542620Y-137464964D01*
X89542620Y-137154756D01*
X89482102Y-136850508D01*
X89363390Y-136563912D01*
X89191047Y-136305983D01*
X88971697Y-136086633D01*
X88913897Y-136048012D01*
X90299540Y-136048012D01*
X90424022Y-136035752D01*
X90543720Y-135999442D01*
X90654034Y-135940477D01*
X90750725Y-135861125D01*
X90830077Y-135764434D01*
X90889042Y-135654120D01*
X90912348Y-135577290D01*
X93144340Y-135577290D01*
X93144340Y-136202710D01*
X93266354Y-136816113D01*
X93505692Y-137393926D01*
X93853157Y-137913944D01*
X94295396Y-138356183D01*
X94815414Y-138703648D01*
X95393227Y-138942986D01*
X96006630Y-139065000D01*
X96632050Y-139065000D01*
X97245453Y-138942986D01*
X97823266Y-138703648D01*
X98343284Y-138356183D01*
X98785523Y-137913944D01*
X99132988Y-137393926D01*
X99372326Y-136816113D01*
X99422615Y-136563291D01*
X105162350Y-136563291D01*
X105162350Y-136903269D01*
X105228677Y-137236715D01*
X105358781Y-137550814D01*
X105547663Y-137833496D01*
X105788064Y-138073897D01*
X106070746Y-138262779D01*
X106384845Y-138392883D01*
X106718291Y-138459210D01*
X107058269Y-138459210D01*
X107391715Y-138392883D01*
X107705814Y-138262779D01*
X107988496Y-138073897D01*
X108137960Y-137924433D01*
X108287424Y-138073897D01*
X108570106Y-138262779D01*
X108884205Y-138392883D01*
X109217651Y-138459210D01*
X109557629Y-138459210D01*
X109891075Y-138392883D01*
X110205174Y-138262779D01*
X110487856Y-138073897D01*
X110728257Y-137833496D01*
X110917139Y-137550814D01*
X110929333Y-137521375D01*
X111100090Y-137692132D01*
X111302273Y-137827227D01*
X111526927Y-137920281D01*
X111765418Y-137967720D01*
X112008582Y-137967720D01*
X112247073Y-137920281D01*
X112471727Y-137827227D01*
X112673910Y-137692132D01*
X112844667Y-137521375D01*
X112856861Y-137550814D01*
X113045743Y-137833496D01*
X113286144Y-138073897D01*
X113568826Y-138262779D01*
X113882925Y-138392883D01*
X114216371Y-138459210D01*
X114556349Y-138459210D01*
X114889795Y-138392883D01*
X115203894Y-138262779D01*
X115486576Y-138073897D01*
X115636040Y-137924433D01*
X115785504Y-138073897D01*
X116068186Y-138262779D01*
X116382285Y-138392883D01*
X116715731Y-138459210D01*
X117055709Y-138459210D01*
X117186041Y-138433285D01*
X120371000Y-138433285D01*
X120371000Y-139188715D01*
X120518377Y-139929628D01*
X120807467Y-140627554D01*
X121227161Y-141255670D01*
X121761330Y-141789839D01*
X122389446Y-142209533D01*
X123087372Y-142498623D01*
X123828285Y-142646000D01*
X124583715Y-142646000D01*
X125324628Y-142498623D01*
X126022554Y-142209533D01*
X126650670Y-141789839D01*
X127184839Y-141255670D01*
X127604533Y-140627554D01*
X127893623Y-139929628D01*
X128041000Y-139188715D01*
X128041000Y-138433285D01*
X127893623Y-137692372D01*
X127604533Y-136994446D01*
X127184839Y-136366330D01*
X126650670Y-135832161D01*
X126022554Y-135412467D01*
X125324628Y-135123377D01*
X124583715Y-134976000D01*
X123828285Y-134976000D01*
X123087372Y-135123377D01*
X122389446Y-135412467D01*
X121761330Y-135832161D01*
X121227161Y-136366330D01*
X120807467Y-136994446D01*
X120518377Y-137692372D01*
X120371000Y-138433285D01*
X117186041Y-138433285D01*
X117389155Y-138392883D01*
X117703254Y-138262779D01*
X117985936Y-138073897D01*
X118226337Y-137833496D01*
X118415219Y-137550814D01*
X118545323Y-137236715D01*
X118611650Y-136903269D01*
X118611650Y-136563291D01*
X118545323Y-136229845D01*
X118415219Y-135915746D01*
X118226337Y-135633064D01*
X117985936Y-135392663D01*
X117703254Y-135203781D01*
X117389155Y-135073677D01*
X117055709Y-135007350D01*
X116715731Y-135007350D01*
X116382285Y-135073677D01*
X116068186Y-135203781D01*
X115785504Y-135392663D01*
X115636040Y-135542127D01*
X115486576Y-135392663D01*
X115203894Y-135203781D01*
X114889795Y-135073677D01*
X114556349Y-135007350D01*
X114216371Y-135007350D01*
X113882925Y-135073677D01*
X113568826Y-135203781D01*
X113286144Y-135392663D01*
X113045743Y-135633064D01*
X112856861Y-135915746D01*
X112844667Y-135945185D01*
X112673910Y-135774428D01*
X112471727Y-135639333D01*
X112247073Y-135546279D01*
X112008582Y-135498840D01*
X111765418Y-135498840D01*
X111526927Y-135546279D01*
X111302273Y-135639333D01*
X111100090Y-135774428D01*
X110929333Y-135945185D01*
X110917139Y-135915746D01*
X110728257Y-135633064D01*
X110487856Y-135392663D01*
X110205174Y-135203781D01*
X109891075Y-135073677D01*
X109557629Y-135007350D01*
X109217651Y-135007350D01*
X108884205Y-135073677D01*
X108570106Y-135203781D01*
X108287424Y-135392663D01*
X108137960Y-135542127D01*
X107988496Y-135392663D01*
X107705814Y-135203781D01*
X107391715Y-135073677D01*
X107058269Y-135007350D01*
X106718291Y-135007350D01*
X106384845Y-135073677D01*
X106070746Y-135203781D01*
X105788064Y-135392663D01*
X105547663Y-135633064D01*
X105358781Y-135915746D01*
X105228677Y-136229845D01*
X105162350Y-136563291D01*
X99422615Y-136563291D01*
X99494340Y-136202710D01*
X99494340Y-135577290D01*
X99372326Y-134963887D01*
X99132988Y-134386074D01*
X98785523Y-133866056D01*
X98343284Y-133423817D01*
X97823266Y-133076352D01*
X97245453Y-132837014D01*
X96632050Y-132715000D01*
X96006630Y-132715000D01*
X95393227Y-132837014D01*
X94815414Y-133076352D01*
X94295396Y-133423817D01*
X93853157Y-133866056D01*
X93505692Y-134386074D01*
X93266354Y-134963887D01*
X93144340Y-135577290D01*
X90912348Y-135577290D01*
X90925352Y-135534422D01*
X90937612Y-135409940D01*
X90937612Y-133530340D01*
X90925352Y-133405858D01*
X90889042Y-133286160D01*
X90830077Y-133175846D01*
X90750725Y-133079155D01*
X90654034Y-132999803D01*
X90543720Y-132940838D01*
X90424022Y-132904528D01*
X90299540Y-132892268D01*
X88419940Y-132892268D01*
X88295458Y-132904528D01*
X88175760Y-132940838D01*
X88065446Y-132999803D01*
X87968755Y-133079155D01*
X87889403Y-133175846D01*
X87830438Y-133286160D01*
X87794128Y-133405858D01*
X87790299Y-133444735D01*
X87592477Y-133246913D01*
X87334548Y-133074570D01*
X87047952Y-132955858D01*
X86743704Y-132895340D01*
X86433496Y-132895340D01*
X86129248Y-132955858D01*
X85842652Y-133074570D01*
X85584723Y-133246913D01*
X85365373Y-133466263D01*
X85204300Y-133707325D01*
X85043227Y-133466263D01*
X84823877Y-133246913D01*
X84565948Y-133074570D01*
X84279352Y-132955858D01*
X83975104Y-132895340D01*
X83664896Y-132895340D01*
X83360648Y-132955858D01*
X83074052Y-133074570D01*
X82816123Y-133246913D01*
X82596773Y-133466263D01*
X82435700Y-133707325D01*
X82274627Y-133466263D01*
X82055277Y-133246913D01*
X81797348Y-133074570D01*
X81510752Y-132955858D01*
X81206504Y-132895340D01*
X80896296Y-132895340D01*
X80592048Y-132955858D01*
X80305452Y-133074570D01*
X80047523Y-133246913D01*
X79828173Y-133466263D01*
X79665316Y-133709996D01*
X79630983Y-133645763D01*
X79372736Y-133557269D01*
X78459865Y-134470140D01*
X79372736Y-135383011D01*
X79630983Y-135294517D01*
X79663388Y-135227399D01*
X79828173Y-135474017D01*
X80047523Y-135693367D01*
X80305452Y-135865710D01*
X80592048Y-135984422D01*
X80896296Y-136044940D01*
X81206504Y-136044940D01*
X81510752Y-135984422D01*
X81797348Y-135865710D01*
X82055277Y-135693367D01*
X82274627Y-135474017D01*
X82435700Y-135232955D01*
X82596773Y-135474017D01*
X82816123Y-135693367D01*
X83074052Y-135865710D01*
X83360648Y-135984422D01*
X83664896Y-136044940D01*
X83975104Y-136044940D01*
X84279352Y-135984422D01*
X84565948Y-135865710D01*
X84823877Y-135693367D01*
X85043227Y-135474017D01*
X85204300Y-135232955D01*
X85365373Y-135474017D01*
X85584723Y-135693367D01*
X85842652Y-135865710D01*
X86129248Y-135984422D01*
X86433496Y-136044940D01*
X86743704Y-136044940D01*
X87047952Y-135984422D01*
X87334548Y-135865710D01*
X87592477Y-135693367D01*
X87790299Y-135495545D01*
X87794128Y-135534422D01*
X87830438Y-135654120D01*
X87873702Y-135735060D01*
X87812716Y-135735060D01*
X87508468Y-135795578D01*
X87221872Y-135914290D01*
X86963943Y-136086633D01*
X86744593Y-136305983D01*
X86583520Y-136547045D01*
X86422447Y-136305983D01*
X86203097Y-136086633D01*
X85945168Y-135914290D01*
X85658572Y-135795578D01*
X85354324Y-135735060D01*
X85044116Y-135735060D01*
X84739868Y-135795578D01*
X84453272Y-135914290D01*
X84195343Y-136086633D01*
X83975993Y-136305983D01*
X83820000Y-136539443D01*
X83664007Y-136305983D01*
X83444657Y-136086633D01*
X83186728Y-135914290D01*
X82900132Y-135795578D01*
X82595884Y-135735060D01*
X82285676Y-135735060D01*
X81981428Y-135795578D01*
X81694832Y-135914290D01*
X81436903Y-136086633D01*
X81217553Y-136305983D01*
X81056480Y-136547045D01*
X80895407Y-136305983D01*
X80676057Y-136086633D01*
X80418128Y-135914290D01*
X80131532Y-135795578D01*
X79827284Y-135735060D01*
X79517076Y-135735060D01*
X79212828Y-135795578D01*
X78926232Y-135914290D01*
X78668303Y-136086633D01*
X78448953Y-136305983D01*
X78276610Y-136563912D01*
X78157898Y-136850508D01*
X78097380Y-137154756D01*
X74233375Y-137154756D01*
X74373646Y-136816113D01*
X74495660Y-136202710D01*
X74495660Y-135577290D01*
X74492742Y-135562616D01*
X77367389Y-135562616D01*
X77455883Y-135820863D01*
X77735236Y-135955737D01*
X78035535Y-136033521D01*
X78345237Y-136051224D01*
X78652444Y-136008167D01*
X78945346Y-135906005D01*
X79104637Y-135820863D01*
X79193131Y-135562616D01*
X78280260Y-134649745D01*
X77367389Y-135562616D01*
X74492742Y-135562616D01*
X74373646Y-134963887D01*
X74196044Y-134535117D01*
X76699176Y-134535117D01*
X76742233Y-134842324D01*
X76844395Y-135135226D01*
X76929537Y-135294517D01*
X77187784Y-135383011D01*
X78100655Y-134470140D01*
X77187784Y-133557269D01*
X76929537Y-133645763D01*
X76794663Y-133925116D01*
X76716879Y-134225415D01*
X76699176Y-134535117D01*
X74196044Y-134535117D01*
X74134308Y-134386074D01*
X73786843Y-133866056D01*
X73344604Y-133423817D01*
X73275532Y-133377664D01*
X77367389Y-133377664D01*
X78280260Y-134290535D01*
X79193131Y-133377664D01*
X79104637Y-133119417D01*
X78825284Y-132984543D01*
X78524985Y-132906759D01*
X78215283Y-132889056D01*
X77908076Y-132932113D01*
X77615174Y-133034275D01*
X77455883Y-133119417D01*
X77367389Y-133377664D01*
X73275532Y-133377664D01*
X72824586Y-133076352D01*
X72246773Y-132837014D01*
X71633370Y-132715000D01*
X71007950Y-132715000D01*
X70394547Y-132837014D01*
X69816734Y-133076352D01*
X69296716Y-133423817D01*
X68854477Y-133866056D01*
X68507012Y-134386074D01*
X68267674Y-134963887D01*
X68145660Y-135577290D01*
X61291731Y-135577290D01*
X61317072Y-135320000D01*
X61317072Y-133570000D01*
X61287999Y-133274814D01*
X61201896Y-132990972D01*
X61062073Y-132729382D01*
X60873903Y-132500097D01*
X60644618Y-132311927D01*
X60383028Y-132172104D01*
X60099186Y-132086001D01*
X59804000Y-132056928D01*
X58054000Y-132056928D01*
X57758814Y-132086001D01*
X57474972Y-132172104D01*
X57213382Y-132311927D01*
X56984097Y-132500097D01*
X56795927Y-132729382D01*
X56656104Y-132990972D01*
X56617072Y-133119643D01*
X56617072Y-129695000D01*
X56604812Y-129570518D01*
X56568502Y-129450820D01*
X56509537Y-129340506D01*
X56430185Y-129243815D01*
X56333494Y-129164463D01*
X56223180Y-129105498D01*
X56103482Y-129069188D01*
X55979000Y-129056928D01*
X52479000Y-129056928D01*
X52354518Y-129069188D01*
X52234820Y-129105498D01*
X52124506Y-129164463D01*
X52027815Y-129243815D01*
X51948463Y-129340506D01*
X51889498Y-129450820D01*
X51853188Y-129570518D01*
X51840928Y-129695000D01*
X33528000Y-129695000D01*
X33528000Y-125578816D01*
X77365000Y-125578816D01*
X77365000Y-125881184D01*
X77423989Y-126177743D01*
X77539701Y-126457095D01*
X77707688Y-126708505D01*
X77921495Y-126922312D01*
X78172905Y-127090299D01*
X78452257Y-127206011D01*
X78748816Y-127265000D01*
X79051184Y-127265000D01*
X79347743Y-127206011D01*
X79627095Y-127090299D01*
X79878505Y-126922312D01*
X80092312Y-126708505D01*
X80150000Y-126622169D01*
X80207688Y-126708505D01*
X80421495Y-126922312D01*
X80672905Y-127090299D01*
X80952257Y-127206011D01*
X81248816Y-127265000D01*
X81551184Y-127265000D01*
X81847743Y-127206011D01*
X82127095Y-127090299D01*
X82378505Y-126922312D01*
X82592312Y-126708505D01*
X82650000Y-126622169D01*
X82707688Y-126708505D01*
X82921495Y-126922312D01*
X83172905Y-127090299D01*
X83452257Y-127206011D01*
X83748816Y-127265000D01*
X84051184Y-127265000D01*
X84347743Y-127206011D01*
X84627095Y-127090299D01*
X84878505Y-126922312D01*
X85092312Y-126708505D01*
X85150000Y-126622169D01*
X85207688Y-126708505D01*
X85421495Y-126922312D01*
X85672905Y-127090299D01*
X85952257Y-127206011D01*
X86248816Y-127265000D01*
X86551184Y-127265000D01*
X86847743Y-127206011D01*
X87127095Y-127090299D01*
X87378505Y-126922312D01*
X87487571Y-126813246D01*
X87514966Y-126864498D01*
X87627896Y-127002104D01*
X87765502Y-127115034D01*
X87922496Y-127198949D01*
X88092844Y-127250624D01*
X88270000Y-127268072D01*
X89530000Y-127268072D01*
X89707156Y-127250624D01*
X89877504Y-127198949D01*
X90034498Y-127115034D01*
X90172104Y-127002104D01*
X90285034Y-126864498D01*
X90368949Y-126707504D01*
X90420624Y-126537156D01*
X90438072Y-126360000D01*
X90438072Y-125100000D01*
X90420624Y-124922844D01*
X90368949Y-124752496D01*
X90285034Y-124595502D01*
X90172104Y-124457896D01*
X90034498Y-124344966D01*
X89983246Y-124317571D01*
X90092312Y-124208505D01*
X90260299Y-123957095D01*
X90376011Y-123677743D01*
X90435000Y-123381184D01*
X90435000Y-123078816D01*
X90376011Y-122782257D01*
X90260299Y-122502905D01*
X90092312Y-122251495D01*
X89878505Y-122037688D01*
X89627095Y-121869701D01*
X89347743Y-121753989D01*
X89051184Y-121695000D01*
X88748816Y-121695000D01*
X88452257Y-121753989D01*
X88172905Y-121869701D01*
X87921495Y-122037688D01*
X87707688Y-122251495D01*
X87650000Y-122337831D01*
X87592312Y-122251495D01*
X87378505Y-122037688D01*
X87127095Y-121869701D01*
X86847743Y-121753989D01*
X86551184Y-121695000D01*
X86248816Y-121695000D01*
X85952257Y-121753989D01*
X85672905Y-121869701D01*
X85421495Y-122037688D01*
X85207688Y-122251495D01*
X85150000Y-122337831D01*
X85092312Y-122251495D01*
X84878505Y-122037688D01*
X84627095Y-121869701D01*
X84347743Y-121753989D01*
X84051184Y-121695000D01*
X83748816Y-121695000D01*
X83452257Y-121753989D01*
X83172905Y-121869701D01*
X82921495Y-122037688D01*
X82707688Y-122251495D01*
X82650000Y-122337831D01*
X82592312Y-122251495D01*
X82378505Y-122037688D01*
X82127095Y-121869701D01*
X81847743Y-121753989D01*
X81551184Y-121695000D01*
X81248816Y-121695000D01*
X80952257Y-121753989D01*
X80672905Y-121869701D01*
X80421495Y-122037688D01*
X80207688Y-122251495D01*
X80112262Y-122394310D01*
X79964080Y-122345525D01*
X79079605Y-123230000D01*
X79964080Y-124114475D01*
X80112262Y-124065690D01*
X80207688Y-124208505D01*
X80421495Y-124422312D01*
X80507831Y-124480000D01*
X80421495Y-124537688D01*
X80207688Y-124751495D01*
X80150000Y-124837831D01*
X80092312Y-124751495D01*
X79878505Y-124537688D01*
X79735690Y-124442262D01*
X79784475Y-124294080D01*
X78900000Y-123409605D01*
X78015525Y-124294080D01*
X78064310Y-124442262D01*
X77921495Y-124537688D01*
X77707688Y-124751495D01*
X77539701Y-125002905D01*
X77423989Y-125282257D01*
X77365000Y-125578816D01*
X33528000Y-125578816D01*
X33528000Y-121216495D01*
X41588000Y-121216495D01*
X41588000Y-121607505D01*
X41664282Y-121991003D01*
X41813915Y-122352250D01*
X42031149Y-122677364D01*
X42307636Y-122953851D01*
X42632750Y-123171085D01*
X42993997Y-123320718D01*
X43377495Y-123397000D01*
X43768505Y-123397000D01*
X44152003Y-123320718D01*
X44513250Y-123171085D01*
X44838364Y-122953851D01*
X45114851Y-122677364D01*
X45332085Y-122352250D01*
X45481718Y-121991003D01*
X45553000Y-121632642D01*
X45624282Y-121991003D01*
X45773915Y-122352250D01*
X45991149Y-122677364D01*
X46267636Y-122953851D01*
X46592750Y-123171085D01*
X46953997Y-123320718D01*
X47337495Y-123397000D01*
X47728505Y-123397000D01*
X48112003Y-123320718D01*
X48473250Y-123171085D01*
X48798364Y-122953851D01*
X49074851Y-122677364D01*
X49292085Y-122352250D01*
X49441718Y-121991003D01*
X49513000Y-121632642D01*
X49584282Y-121991003D01*
X49733915Y-122352250D01*
X49951149Y-122677364D01*
X50227636Y-122953851D01*
X50552750Y-123171085D01*
X50913997Y-123320718D01*
X51297495Y-123397000D01*
X51688505Y-123397000D01*
X52072003Y-123320718D01*
X52433250Y-123171085D01*
X52758364Y-122953851D01*
X53034851Y-122677364D01*
X53252085Y-122352250D01*
X53401718Y-121991003D01*
X53473000Y-121632642D01*
X53544282Y-121991003D01*
X53693915Y-122352250D01*
X53911149Y-122677364D01*
X54187636Y-122953851D01*
X54512750Y-123171085D01*
X54873997Y-123320718D01*
X55257495Y-123397000D01*
X55648505Y-123397000D01*
X56032003Y-123320718D01*
X56393250Y-123171085D01*
X56718364Y-122953851D01*
X56994851Y-122677364D01*
X57212085Y-122352250D01*
X57361718Y-121991003D01*
X57433000Y-121632642D01*
X57504282Y-121991003D01*
X57653915Y-122352250D01*
X57871149Y-122677364D01*
X58147636Y-122953851D01*
X58472750Y-123171085D01*
X58833997Y-123320718D01*
X59217495Y-123397000D01*
X59608505Y-123397000D01*
X59992003Y-123320718D01*
X60353250Y-123171085D01*
X60678364Y-122953851D01*
X60954851Y-122677364D01*
X61172085Y-122352250D01*
X61321718Y-121991003D01*
X61384928Y-121673223D01*
X61384928Y-122511999D01*
X61401992Y-122685253D01*
X61452529Y-122851850D01*
X61534595Y-123005386D01*
X61645039Y-123139961D01*
X61779614Y-123250405D01*
X61933150Y-123332471D01*
X62099747Y-123383008D01*
X62273001Y-123400072D01*
X64472999Y-123400072D01*
X64646253Y-123383008D01*
X64812850Y-123332471D01*
X64880048Y-123296553D01*
X77359009Y-123296553D01*
X77401603Y-123595907D01*
X77501778Y-123881199D01*
X77581739Y-124030792D01*
X77835920Y-124114475D01*
X78720395Y-123230000D01*
X77835920Y-122345525D01*
X77581739Y-122429208D01*
X77450842Y-122701775D01*
X77375635Y-122994642D01*
X77359009Y-123296553D01*
X64880048Y-123296553D01*
X64966386Y-123250405D01*
X65100961Y-123139961D01*
X65211405Y-123005386D01*
X65293471Y-122851850D01*
X65344008Y-122685253D01*
X65361072Y-122511999D01*
X65361072Y-122165920D01*
X78015525Y-122165920D01*
X78900000Y-123050395D01*
X79784475Y-122165920D01*
X79700792Y-121911739D01*
X79428225Y-121780842D01*
X79135358Y-121705635D01*
X78833447Y-121689009D01*
X78534093Y-121731603D01*
X78248801Y-121831778D01*
X78099208Y-121911739D01*
X78015525Y-122165920D01*
X65361072Y-122165920D01*
X65361072Y-120312001D01*
X65344008Y-120138747D01*
X65293471Y-119972150D01*
X65211405Y-119818614D01*
X65100961Y-119684039D01*
X64966386Y-119573595D01*
X64812850Y-119491529D01*
X64646253Y-119440992D01*
X64472999Y-119423928D01*
X62273001Y-119423928D01*
X62099747Y-119440992D01*
X61933150Y-119491529D01*
X61779614Y-119573595D01*
X61645039Y-119684039D01*
X61534595Y-119818614D01*
X61452529Y-119972150D01*
X61401992Y-120138747D01*
X61384928Y-120312001D01*
X61384928Y-121150777D01*
X61321718Y-120832997D01*
X61172085Y-120471750D01*
X60954851Y-120146636D01*
X60678364Y-119870149D01*
X60353250Y-119652915D01*
X59992003Y-119503282D01*
X59608505Y-119427000D01*
X59217495Y-119427000D01*
X58833997Y-119503282D01*
X58472750Y-119652915D01*
X58147636Y-119870149D01*
X57871149Y-120146636D01*
X57653915Y-120471750D01*
X57504282Y-120832997D01*
X57433000Y-121191358D01*
X57361718Y-120832997D01*
X57212085Y-120471750D01*
X56994851Y-120146636D01*
X56718364Y-119870149D01*
X56393250Y-119652915D01*
X56032003Y-119503282D01*
X55648505Y-119427000D01*
X55257495Y-119427000D01*
X54873997Y-119503282D01*
X54512750Y-119652915D01*
X54187636Y-119870149D01*
X53911149Y-120146636D01*
X53693915Y-120471750D01*
X53544282Y-120832997D01*
X53473000Y-121191358D01*
X53401718Y-120832997D01*
X53252085Y-120471750D01*
X53034851Y-120146636D01*
X52758364Y-119870149D01*
X52433250Y-119652915D01*
X52072003Y-119503282D01*
X51688505Y-119427000D01*
X51297495Y-119427000D01*
X50913997Y-119503282D01*
X50552750Y-119652915D01*
X50227636Y-119870149D01*
X49951149Y-120146636D01*
X49733915Y-120471750D01*
X49584282Y-120832997D01*
X49513000Y-121191358D01*
X49441718Y-120832997D01*
X49292085Y-120471750D01*
X49074851Y-120146636D01*
X48798364Y-119870149D01*
X48473250Y-119652915D01*
X48112003Y-119503282D01*
X47728505Y-119427000D01*
X47337495Y-119427000D01*
X46953997Y-119503282D01*
X46592750Y-119652915D01*
X46267636Y-119870149D01*
X45991149Y-120146636D01*
X45773915Y-120471750D01*
X45624282Y-120832997D01*
X45553000Y-121191358D01*
X45481718Y-120832997D01*
X45332085Y-120471750D01*
X45114851Y-120146636D01*
X44838364Y-119870149D01*
X44513250Y-119652915D01*
X44152003Y-119503282D01*
X43768505Y-119427000D01*
X43377495Y-119427000D01*
X42993997Y-119503282D01*
X42632750Y-119652915D01*
X42307636Y-119870149D01*
X42031149Y-120146636D01*
X41813915Y-120471750D01*
X41664282Y-120832997D01*
X41588000Y-121216495D01*
X33528000Y-121216495D01*
X33528000Y-119417000D01*
X107858928Y-119417000D01*
X107858928Y-120867000D01*
X107875992Y-121040254D01*
X107926528Y-121206850D01*
X108008595Y-121360386D01*
X108119038Y-121494962D01*
X108253614Y-121605405D01*
X108407150Y-121687472D01*
X108573746Y-121738008D01*
X108747000Y-121755072D01*
X109947000Y-121755072D01*
X110120254Y-121738008D01*
X110286850Y-121687472D01*
X110440386Y-121605405D01*
X110574962Y-121494962D01*
X110685405Y-121360386D01*
X110739777Y-121258663D01*
X110791866Y-121322134D01*
X111017987Y-121507706D01*
X111275967Y-121645599D01*
X111555890Y-121730513D01*
X111847000Y-121759185D01*
X112138111Y-121730513D01*
X112418034Y-121645599D01*
X112676014Y-121507706D01*
X112902134Y-121322134D01*
X113087706Y-121096014D01*
X113097000Y-121078626D01*
X113106294Y-121096014D01*
X113291866Y-121322134D01*
X113517987Y-121507706D01*
X113775967Y-121645599D01*
X114055890Y-121730513D01*
X114347000Y-121759185D01*
X114638111Y-121730513D01*
X114918034Y-121645599D01*
X115176014Y-121507706D01*
X115402134Y-121322134D01*
X115587706Y-121096014D01*
X115725599Y-120838033D01*
X115810513Y-120558110D01*
X115832000Y-120339949D01*
X115832000Y-119944050D01*
X115810513Y-119725889D01*
X115725599Y-119445966D01*
X115587706Y-119187986D01*
X115402134Y-118961866D01*
X115176013Y-118776294D01*
X114918033Y-118638401D01*
X114638110Y-118553487D01*
X114347000Y-118524815D01*
X114055889Y-118553487D01*
X113775966Y-118638401D01*
X113517986Y-118776294D01*
X113291866Y-118961866D01*
X113106294Y-119187987D01*
X113097000Y-119205374D01*
X113087706Y-119187986D01*
X112902134Y-118961866D01*
X112676013Y-118776294D01*
X112418033Y-118638401D01*
X112138110Y-118553487D01*
X111847000Y-118524815D01*
X111555889Y-118553487D01*
X111275966Y-118638401D01*
X111017986Y-118776294D01*
X110791866Y-118961866D01*
X110739777Y-119025337D01*
X110685405Y-118923614D01*
X110574962Y-118789038D01*
X110440386Y-118678595D01*
X110286850Y-118596528D01*
X110120254Y-118545992D01*
X109947000Y-118528928D01*
X108747000Y-118528928D01*
X108573746Y-118545992D01*
X108407150Y-118596528D01*
X108253614Y-118678595D01*
X108119038Y-118789038D01*
X108008595Y-118923614D01*
X107926528Y-119077150D01*
X107875992Y-119243746D01*
X107858928Y-119417000D01*
X33528000Y-119417000D01*
X33528000Y-110604838D01*
X69776767Y-110604838D01*
X69914724Y-110905044D01*
X70263967Y-111080882D01*
X70640804Y-111185207D01*
X71030753Y-111214009D01*
X71418828Y-111166184D01*
X71790116Y-111043568D01*
X72049276Y-110905044D01*
X72187233Y-110604838D01*
X73736767Y-110604838D01*
X73874724Y-110905044D01*
X74223967Y-111080882D01*
X74600804Y-111185207D01*
X74990753Y-111214009D01*
X75378828Y-111166184D01*
X75750116Y-111043568D01*
X76009276Y-110905044D01*
X76147233Y-110604838D01*
X77696767Y-110604838D01*
X77834724Y-110905044D01*
X78183967Y-111080882D01*
X78560804Y-111185207D01*
X78950753Y-111214009D01*
X79338828Y-111166184D01*
X79710116Y-111043568D01*
X79969276Y-110905044D01*
X80107233Y-110604838D01*
X81656767Y-110604838D01*
X81794724Y-110905044D01*
X82143967Y-111080882D01*
X82520804Y-111185207D01*
X82910753Y-111214009D01*
X83298828Y-111166184D01*
X83670116Y-111043568D01*
X83929276Y-110905044D01*
X84067233Y-110604838D01*
X85616767Y-110604838D01*
X85754724Y-110905044D01*
X86103967Y-111080882D01*
X86480804Y-111185207D01*
X86870753Y-111214009D01*
X87258828Y-111166184D01*
X87630116Y-111043568D01*
X87889276Y-110905044D01*
X88027233Y-110604838D01*
X89576767Y-110604838D01*
X89714724Y-110905044D01*
X90063967Y-111080882D01*
X90440804Y-111185207D01*
X90830753Y-111214009D01*
X91218828Y-111166184D01*
X91590116Y-111043568D01*
X91849276Y-110905044D01*
X91987233Y-110604838D01*
X90782000Y-109399605D01*
X89576767Y-110604838D01*
X88027233Y-110604838D01*
X86822000Y-109399605D01*
X85616767Y-110604838D01*
X84067233Y-110604838D01*
X82862000Y-109399605D01*
X81656767Y-110604838D01*
X80107233Y-110604838D01*
X78902000Y-109399605D01*
X77696767Y-110604838D01*
X76147233Y-110604838D01*
X74942000Y-109399605D01*
X73736767Y-110604838D01*
X72187233Y-110604838D01*
X70982000Y-109399605D01*
X69776767Y-110604838D01*
X33528000Y-110604838D01*
X33528000Y-109268753D01*
X68987991Y-109268753D01*
X69035816Y-109656828D01*
X69158432Y-110028116D01*
X69296956Y-110287276D01*
X69597162Y-110425233D01*
X70802395Y-109220000D01*
X71161605Y-109220000D01*
X72366838Y-110425233D01*
X72667044Y-110287276D01*
X72842882Y-109938033D01*
X72947207Y-109561196D01*
X72961006Y-109374366D01*
X72995816Y-109656828D01*
X73118432Y-110028116D01*
X73256956Y-110287276D01*
X73557162Y-110425233D01*
X74762395Y-109220000D01*
X75121605Y-109220000D01*
X76326838Y-110425233D01*
X76627044Y-110287276D01*
X76802882Y-109938033D01*
X76907207Y-109561196D01*
X76921006Y-109374366D01*
X76955816Y-109656828D01*
X77078432Y-110028116D01*
X77216956Y-110287276D01*
X77517162Y-110425233D01*
X78722395Y-109220000D01*
X79081605Y-109220000D01*
X80286838Y-110425233D01*
X80587044Y-110287276D01*
X80762882Y-109938033D01*
X80867207Y-109561196D01*
X80881006Y-109374366D01*
X80915816Y-109656828D01*
X81038432Y-110028116D01*
X81176956Y-110287276D01*
X81477162Y-110425233D01*
X82682395Y-109220000D01*
X83041605Y-109220000D01*
X84246838Y-110425233D01*
X84547044Y-110287276D01*
X84722882Y-109938033D01*
X84827207Y-109561196D01*
X84841006Y-109374366D01*
X84875816Y-109656828D01*
X84998432Y-110028116D01*
X85136956Y-110287276D01*
X85437162Y-110425233D01*
X86642395Y-109220000D01*
X87001605Y-109220000D01*
X88206838Y-110425233D01*
X88507044Y-110287276D01*
X88682882Y-109938033D01*
X88787207Y-109561196D01*
X88801006Y-109374366D01*
X88835816Y-109656828D01*
X88958432Y-110028116D01*
X89096956Y-110287276D01*
X89397162Y-110425233D01*
X90602395Y-109220000D01*
X90961605Y-109220000D01*
X92166838Y-110425233D01*
X92467044Y-110287276D01*
X92642882Y-109938033D01*
X92747207Y-109561196D01*
X92763028Y-109347002D01*
X92915748Y-109347002D01*
X92757000Y-109505750D01*
X92753928Y-110570000D01*
X92766188Y-110694482D01*
X92802498Y-110814180D01*
X92861463Y-110924494D01*
X92940815Y-111021185D01*
X93037506Y-111100537D01*
X93147820Y-111159502D01*
X93267518Y-111195812D01*
X93392000Y-111208072D01*
X94456250Y-111205000D01*
X94615000Y-111046250D01*
X94615000Y-109347000D01*
X94869000Y-109347000D01*
X94869000Y-111046250D01*
X95027750Y-111205000D01*
X96092000Y-111208072D01*
X96216482Y-111195812D01*
X96336180Y-111159502D01*
X96446494Y-111100537D01*
X96543185Y-111021185D01*
X96622537Y-110924494D01*
X96681502Y-110814180D01*
X96717812Y-110694482D01*
X96730072Y-110570000D01*
X96727000Y-109505750D01*
X96568250Y-109347000D01*
X94869000Y-109347000D01*
X94615000Y-109347000D01*
X94595000Y-109347000D01*
X94595000Y-109093000D01*
X94615000Y-109093000D01*
X94615000Y-107393750D01*
X94869000Y-107393750D01*
X94869000Y-109093000D01*
X96568250Y-109093000D01*
X96727000Y-108934250D01*
X96730072Y-107870000D01*
X96717812Y-107745518D01*
X96681502Y-107625820D01*
X96622537Y-107515506D01*
X96543185Y-107418815D01*
X96446494Y-107339463D01*
X96336180Y-107280498D01*
X96216482Y-107244188D01*
X96092000Y-107231928D01*
X95027750Y-107235000D01*
X94869000Y-107393750D01*
X94615000Y-107393750D01*
X94456250Y-107235000D01*
X93392000Y-107231928D01*
X93267518Y-107244188D01*
X93147820Y-107280498D01*
X93037506Y-107339463D01*
X92940815Y-107418815D01*
X92861463Y-107515506D01*
X92802498Y-107625820D01*
X92766188Y-107745518D01*
X92753928Y-107870000D01*
X92757000Y-108934250D01*
X92915748Y-109092998D01*
X92766366Y-109092998D01*
X92728184Y-108783172D01*
X92605568Y-108411884D01*
X92467044Y-108152724D01*
X92166838Y-108014767D01*
X90961605Y-109220000D01*
X90602395Y-109220000D01*
X89397162Y-108014767D01*
X89096956Y-108152724D01*
X88921118Y-108501967D01*
X88816793Y-108878804D01*
X88802994Y-109065634D01*
X88768184Y-108783172D01*
X88645568Y-108411884D01*
X88507044Y-108152724D01*
X88206838Y-108014767D01*
X87001605Y-109220000D01*
X86642395Y-109220000D01*
X85437162Y-108014767D01*
X85136956Y-108152724D01*
X84961118Y-108501967D01*
X84856793Y-108878804D01*
X84842994Y-109065634D01*
X84808184Y-108783172D01*
X84685568Y-108411884D01*
X84547044Y-108152724D01*
X84246838Y-108014767D01*
X83041605Y-109220000D01*
X82682395Y-109220000D01*
X81477162Y-108014767D01*
X81176956Y-108152724D01*
X81001118Y-108501967D01*
X80896793Y-108878804D01*
X80882994Y-109065634D01*
X80848184Y-108783172D01*
X80725568Y-108411884D01*
X80587044Y-108152724D01*
X80286838Y-108014767D01*
X79081605Y-109220000D01*
X78722395Y-109220000D01*
X77517162Y-108014767D01*
X77216956Y-108152724D01*
X77041118Y-108501967D01*
X76936793Y-108878804D01*
X76922994Y-109065634D01*
X76888184Y-108783172D01*
X76765568Y-108411884D01*
X76627044Y-108152724D01*
X76326838Y-108014767D01*
X75121605Y-109220000D01*
X74762395Y-109220000D01*
X73557162Y-108014767D01*
X73256956Y-108152724D01*
X73081118Y-108501967D01*
X72976793Y-108878804D01*
X72962994Y-109065634D01*
X72928184Y-108783172D01*
X72805568Y-108411884D01*
X72667044Y-108152724D01*
X72366838Y-108014767D01*
X71161605Y-109220000D01*
X70802395Y-109220000D01*
X69597162Y-108014767D01*
X69296956Y-108152724D01*
X69121118Y-108501967D01*
X69016793Y-108878804D01*
X68987991Y-109268753D01*
X33528000Y-109268753D01*
X33528000Y-107835162D01*
X69776767Y-107835162D01*
X70982000Y-109040395D01*
X72187233Y-107835162D01*
X73736767Y-107835162D01*
X74942000Y-109040395D01*
X76147233Y-107835162D01*
X77696767Y-107835162D01*
X78902000Y-109040395D01*
X80107233Y-107835162D01*
X81656767Y-107835162D01*
X82862000Y-109040395D01*
X84067233Y-107835162D01*
X85616767Y-107835162D01*
X86822000Y-109040395D01*
X88027233Y-107835162D01*
X89576767Y-107835162D01*
X90782000Y-109040395D01*
X91987233Y-107835162D01*
X91849276Y-107534956D01*
X91500033Y-107359118D01*
X91123196Y-107254793D01*
X90733247Y-107225991D01*
X90345172Y-107273816D01*
X89973884Y-107396432D01*
X89714724Y-107534956D01*
X89576767Y-107835162D01*
X88027233Y-107835162D01*
X87889276Y-107534956D01*
X87540033Y-107359118D01*
X87163196Y-107254793D01*
X86773247Y-107225991D01*
X86385172Y-107273816D01*
X86013884Y-107396432D01*
X85754724Y-107534956D01*
X85616767Y-107835162D01*
X84067233Y-107835162D01*
X83929276Y-107534956D01*
X83580033Y-107359118D01*
X83203196Y-107254793D01*
X82813247Y-107225991D01*
X82425172Y-107273816D01*
X82053884Y-107396432D01*
X81794724Y-107534956D01*
X81656767Y-107835162D01*
X80107233Y-107835162D01*
X79969276Y-107534956D01*
X79620033Y-107359118D01*
X79243196Y-107254793D01*
X78853247Y-107225991D01*
X78465172Y-107273816D01*
X78093884Y-107396432D01*
X77834724Y-107534956D01*
X77696767Y-107835162D01*
X76147233Y-107835162D01*
X76009276Y-107534956D01*
X75660033Y-107359118D01*
X75283196Y-107254793D01*
X74893247Y-107225991D01*
X74505172Y-107273816D01*
X74133884Y-107396432D01*
X73874724Y-107534956D01*
X73736767Y-107835162D01*
X72187233Y-107835162D01*
X72049276Y-107534956D01*
X71700033Y-107359118D01*
X71323196Y-107254793D01*
X70933247Y-107225991D01*
X70545172Y-107273816D01*
X70173884Y-107396432D01*
X69914724Y-107534956D01*
X69776767Y-107835162D01*
X33528000Y-107835162D01*
X33528000Y-103254285D01*
X34773000Y-103254285D01*
X34773000Y-104009715D01*
X34920377Y-104750628D01*
X35209467Y-105448554D01*
X35629161Y-106076670D01*
X36163330Y-106610839D01*
X36791446Y-107030533D01*
X37489372Y-107319623D01*
X38230285Y-107467000D01*
X38985715Y-107467000D01*
X39726628Y-107319623D01*
X40424554Y-107030533D01*
X41052670Y-106610839D01*
X41586839Y-106076670D01*
X42006533Y-105448554D01*
X42295623Y-104750628D01*
X42443000Y-104009715D01*
X42443000Y-103254285D01*
X120371000Y-103254285D01*
X120371000Y-104009715D01*
X120518377Y-104750628D01*
X120807467Y-105448554D01*
X121227161Y-106076670D01*
X121761330Y-106610839D01*
X122389446Y-107030533D01*
X123087372Y-107319623D01*
X123828285Y-107467000D01*
X124583715Y-107467000D01*
X125324628Y-107319623D01*
X126022554Y-107030533D01*
X126650670Y-106610839D01*
X127184839Y-106076670D01*
X127604533Y-105448554D01*
X127893623Y-104750628D01*
X128041000Y-104009715D01*
X128041000Y-103254285D01*
X127893623Y-102513372D01*
X127604533Y-101815446D01*
X127184839Y-101187330D01*
X126650670Y-100653161D01*
X126022554Y-100233467D01*
X125324628Y-99944377D01*
X124583715Y-99797000D01*
X123828285Y-99797000D01*
X123087372Y-99944377D01*
X122389446Y-100233467D01*
X121761330Y-100653161D01*
X121227161Y-101187330D01*
X120807467Y-101815446D01*
X120518377Y-102513372D01*
X120371000Y-103254285D01*
X42443000Y-103254285D01*
X42295623Y-102513372D01*
X42006533Y-101815446D01*
X41586839Y-101187330D01*
X41052670Y-100653161D01*
X40424554Y-100233467D01*
X39726628Y-99944377D01*
X38985715Y-99797000D01*
X38230285Y-99797000D01*
X37489372Y-99944377D01*
X36791446Y-100233467D01*
X36163330Y-100653161D01*
X35629161Y-101187330D01*
X35209467Y-101815446D01*
X34920377Y-102513372D01*
X34773000Y-103254285D01*
X33528000Y-103254285D01*
X33528000Y-98043833D01*
X129794000Y-97917167D01*
X129794000Y-144526000D01*
%TA.AperFunction,Conductor*%
D20*
G36*
X129794000Y-144526000D02*
G01*
X118085736Y-144526000D01*
X118120160Y-144352942D01*
X118120160Y-144109778D01*
X118072721Y-143871287D01*
X117979667Y-143646633D01*
X117844572Y-143444450D01*
X117672630Y-143272508D01*
X117470447Y-143137413D01*
X117245793Y-143044359D01*
X117007302Y-142996920D01*
X116764138Y-142996920D01*
X116525647Y-143044359D01*
X116300993Y-143137413D01*
X116098810Y-143272508D01*
X115926868Y-143444450D01*
X115791773Y-143646633D01*
X115698719Y-143871287D01*
X115651280Y-144109778D01*
X115651280Y-144352942D01*
X115685704Y-144526000D01*
X108088296Y-144526000D01*
X108122720Y-144352942D01*
X108122720Y-144109778D01*
X108075281Y-143871287D01*
X107982227Y-143646633D01*
X107847132Y-143444450D01*
X107675190Y-143272508D01*
X107473007Y-143137413D01*
X107248353Y-143044359D01*
X107009862Y-142996920D01*
X106766698Y-142996920D01*
X106528207Y-143044359D01*
X106303553Y-143137413D01*
X106101370Y-143272508D01*
X105929428Y-143444450D01*
X105794333Y-143646633D01*
X105701279Y-143871287D01*
X105653840Y-144109778D01*
X105653840Y-144352942D01*
X105688264Y-144526000D01*
X33528000Y-144526000D01*
X33528000Y-138433285D01*
X34773000Y-138433285D01*
X34773000Y-139188715D01*
X34920377Y-139929628D01*
X35209467Y-140627554D01*
X35629161Y-141255670D01*
X36163330Y-141789839D01*
X36791446Y-142209533D01*
X37489372Y-142498623D01*
X38230285Y-142646000D01*
X38985715Y-142646000D01*
X39726628Y-142498623D01*
X40424554Y-142209533D01*
X41052670Y-141789839D01*
X41232091Y-141610418D01*
X105653840Y-141610418D01*
X105653840Y-141853582D01*
X105701279Y-142092073D01*
X105794333Y-142316727D01*
X105929428Y-142518910D01*
X106101370Y-142690852D01*
X106303553Y-142825947D01*
X106528207Y-142919001D01*
X106766698Y-142966440D01*
X107009862Y-142966440D01*
X107248353Y-142919001D01*
X107473007Y-142825947D01*
X107675190Y-142690852D01*
X107847132Y-142518910D01*
X107982227Y-142316727D01*
X108075281Y-142092073D01*
X108122720Y-141853582D01*
X108122720Y-141610418D01*
X108113092Y-141562011D01*
X110161070Y-141562011D01*
X110161070Y-141901989D01*
X110227397Y-142235435D01*
X110357501Y-142549534D01*
X110546383Y-142832216D01*
X110786784Y-143072617D01*
X111069466Y-143261499D01*
X111383565Y-143391603D01*
X111717011Y-143457930D01*
X112056989Y-143457930D01*
X112390435Y-143391603D01*
X112704534Y-143261499D01*
X112987216Y-143072617D01*
X113227617Y-142832216D01*
X113416499Y-142549534D01*
X113546603Y-142235435D01*
X113612930Y-141901989D01*
X113612930Y-141610418D01*
X115651280Y-141610418D01*
X115651280Y-141853582D01*
X115698719Y-142092073D01*
X115791773Y-142316727D01*
X115926868Y-142518910D01*
X116098810Y-142690852D01*
X116300993Y-142825947D01*
X116525647Y-142919001D01*
X116764138Y-142966440D01*
X117007302Y-142966440D01*
X117245793Y-142919001D01*
X117470447Y-142825947D01*
X117672630Y-142690852D01*
X117844572Y-142518910D01*
X117979667Y-142316727D01*
X118072721Y-142092073D01*
X118120160Y-141853582D01*
X118120160Y-141610418D01*
X118072721Y-141371927D01*
X117979667Y-141147273D01*
X117844572Y-140945090D01*
X117672630Y-140773148D01*
X117470447Y-140638053D01*
X117245793Y-140544999D01*
X117007302Y-140497560D01*
X116764138Y-140497560D01*
X116525647Y-140544999D01*
X116300993Y-140638053D01*
X116098810Y-140773148D01*
X115926868Y-140945090D01*
X115791773Y-141147273D01*
X115698719Y-141371927D01*
X115651280Y-141610418D01*
X113612930Y-141610418D01*
X113612930Y-141562011D01*
X113546603Y-141228565D01*
X113416499Y-140914466D01*
X113227617Y-140631784D01*
X112987216Y-140391383D01*
X112704534Y-140202501D01*
X112390435Y-140072397D01*
X112056989Y-140006070D01*
X111717011Y-140006070D01*
X111383565Y-140072397D01*
X111069466Y-140202501D01*
X110786784Y-140391383D01*
X110546383Y-140631784D01*
X110357501Y-140914466D01*
X110227397Y-141228565D01*
X110161070Y-141562011D01*
X108113092Y-141562011D01*
X108075281Y-141371927D01*
X107982227Y-141147273D01*
X107847132Y-140945090D01*
X107675190Y-140773148D01*
X107473007Y-140638053D01*
X107248353Y-140544999D01*
X107009862Y-140497560D01*
X106766698Y-140497560D01*
X106528207Y-140544999D01*
X106303553Y-140638053D01*
X106101370Y-140773148D01*
X105929428Y-140945090D01*
X105794333Y-141147273D01*
X105701279Y-141371927D01*
X105653840Y-141610418D01*
X41232091Y-141610418D01*
X41586839Y-141255670D01*
X42006533Y-140627554D01*
X42295623Y-139929628D01*
X42443000Y-139188715D01*
X42443000Y-138945000D01*
X51840928Y-138945000D01*
X51853188Y-139069482D01*
X51889498Y-139189180D01*
X51948463Y-139299494D01*
X52027815Y-139396185D01*
X52124506Y-139475537D01*
X52234820Y-139534502D01*
X52354518Y-139570812D01*
X52479000Y-139583072D01*
X53943250Y-139580000D01*
X54102000Y-139421250D01*
X54102000Y-137572000D01*
X54356000Y-137572000D01*
X54356000Y-139421250D01*
X54514750Y-139580000D01*
X55979000Y-139583072D01*
X56103482Y-139570812D01*
X56223180Y-139534502D01*
X56333494Y-139475537D01*
X56430185Y-139396185D01*
X56509537Y-139299494D01*
X56568502Y-139189180D01*
X56604812Y-139069482D01*
X56617072Y-138945000D01*
X56614000Y-137730750D01*
X56455250Y-137572000D01*
X54356000Y-137572000D01*
X54102000Y-137572000D01*
X52002750Y-137572000D01*
X51844000Y-137730750D01*
X51840928Y-138945000D01*
X42443000Y-138945000D01*
X42443000Y-138433285D01*
X42295623Y-137692372D01*
X42006533Y-136994446D01*
X41586839Y-136366330D01*
X41165509Y-135945000D01*
X51840928Y-135945000D01*
X51844000Y-137159250D01*
X52002750Y-137318000D01*
X54102000Y-137318000D01*
X54102000Y-135468750D01*
X54356000Y-135468750D01*
X54356000Y-137318000D01*
X56455250Y-137318000D01*
X56614000Y-137159250D01*
X56617072Y-135945000D01*
X56604812Y-135820518D01*
X56568502Y-135700820D01*
X56509537Y-135590506D01*
X56430185Y-135493815D01*
X56333494Y-135414463D01*
X56223180Y-135355498D01*
X56103482Y-135319188D01*
X55979000Y-135306928D01*
X54514750Y-135310000D01*
X54356000Y-135468750D01*
X54102000Y-135468750D01*
X53943250Y-135310000D01*
X52479000Y-135306928D01*
X52354518Y-135319188D01*
X52234820Y-135355498D01*
X52124506Y-135414463D01*
X52027815Y-135493815D01*
X51948463Y-135590506D01*
X51889498Y-135700820D01*
X51853188Y-135820518D01*
X51840928Y-135945000D01*
X41165509Y-135945000D01*
X41052670Y-135832161D01*
X40424554Y-135412467D01*
X39726628Y-135123377D01*
X38985715Y-134976000D01*
X38230285Y-134976000D01*
X37489372Y-135123377D01*
X36791446Y-135412467D01*
X36163330Y-135832161D01*
X35629161Y-136366330D01*
X35209467Y-136994446D01*
X34920377Y-137692372D01*
X34773000Y-138433285D01*
X33528000Y-138433285D01*
X33528000Y-129695000D01*
X51840928Y-129695000D01*
X51840928Y-133195000D01*
X51853188Y-133319482D01*
X51889498Y-133439180D01*
X51948463Y-133549494D01*
X52027815Y-133646185D01*
X52124506Y-133725537D01*
X52234820Y-133784502D01*
X52354518Y-133820812D01*
X52479000Y-133833072D01*
X55979000Y-133833072D01*
X56103482Y-133820812D01*
X56223180Y-133784502D01*
X56333494Y-133725537D01*
X56430185Y-133646185D01*
X56509537Y-133549494D01*
X56550494Y-133472869D01*
X56540928Y-133570000D01*
X56540928Y-135320000D01*
X56570001Y-135615186D01*
X56656104Y-135899028D01*
X56795927Y-136160618D01*
X56984097Y-136389903D01*
X57213382Y-136578073D01*
X57474972Y-136717896D01*
X57758814Y-136803999D01*
X58054000Y-136833072D01*
X59804000Y-136833072D01*
X60099186Y-136803999D01*
X60383028Y-136717896D01*
X60644618Y-136578073D01*
X60873903Y-136389903D01*
X61062073Y-136160618D01*
X61201896Y-135899028D01*
X61287999Y-135615186D01*
X61291731Y-135577290D01*
X68145660Y-135577290D01*
X68145660Y-136202710D01*
X68267674Y-136816113D01*
X68507012Y-137393926D01*
X68854477Y-137913944D01*
X69296716Y-138356183D01*
X69816734Y-138703648D01*
X70394547Y-138942986D01*
X71007950Y-139065000D01*
X71633370Y-139065000D01*
X72246773Y-138942986D01*
X72824586Y-138703648D01*
X73344604Y-138356183D01*
X73786843Y-137913944D01*
X74134308Y-137393926D01*
X74233375Y-137154756D01*
X78097380Y-137154756D01*
X78097380Y-137464964D01*
X78157898Y-137769212D01*
X78276610Y-138055808D01*
X78448953Y-138313737D01*
X78668303Y-138533087D01*
X78926232Y-138705430D01*
X79212828Y-138824142D01*
X79517076Y-138884660D01*
X79827284Y-138884660D01*
X80131532Y-138824142D01*
X80418128Y-138705430D01*
X80676057Y-138533087D01*
X80895407Y-138313737D01*
X81056480Y-138072675D01*
X81217553Y-138313737D01*
X81436903Y-138533087D01*
X81694832Y-138705430D01*
X81981428Y-138824142D01*
X82285676Y-138884660D01*
X82595884Y-138884660D01*
X82900132Y-138824142D01*
X83186728Y-138705430D01*
X83444657Y-138533087D01*
X83664007Y-138313737D01*
X83820000Y-138080277D01*
X83975993Y-138313737D01*
X84195343Y-138533087D01*
X84453272Y-138705430D01*
X84739868Y-138824142D01*
X85044116Y-138884660D01*
X85354324Y-138884660D01*
X85658572Y-138824142D01*
X85945168Y-138705430D01*
X86203097Y-138533087D01*
X86422447Y-138313737D01*
X86583520Y-138072675D01*
X86744593Y-138313737D01*
X86963943Y-138533087D01*
X87221872Y-138705430D01*
X87508468Y-138824142D01*
X87812716Y-138884660D01*
X88122924Y-138884660D01*
X88427172Y-138824142D01*
X88713768Y-138705430D01*
X88971697Y-138533087D01*
X89191047Y-138313737D01*
X89363390Y-138055808D01*
X89482102Y-137769212D01*
X89542620Y-137464964D01*
X89542620Y-137154756D01*
X89482102Y-136850508D01*
X89363390Y-136563912D01*
X89191047Y-136305983D01*
X88971697Y-136086633D01*
X88913897Y-136048012D01*
X90299540Y-136048012D01*
X90424022Y-136035752D01*
X90543720Y-135999442D01*
X90654034Y-135940477D01*
X90750725Y-135861125D01*
X90830077Y-135764434D01*
X90889042Y-135654120D01*
X90912348Y-135577290D01*
X93144340Y-135577290D01*
X93144340Y-136202710D01*
X93266354Y-136816113D01*
X93505692Y-137393926D01*
X93853157Y-137913944D01*
X94295396Y-138356183D01*
X94815414Y-138703648D01*
X95393227Y-138942986D01*
X96006630Y-139065000D01*
X96632050Y-139065000D01*
X97245453Y-138942986D01*
X97823266Y-138703648D01*
X98343284Y-138356183D01*
X98785523Y-137913944D01*
X99132988Y-137393926D01*
X99372326Y-136816113D01*
X99422615Y-136563291D01*
X105162350Y-136563291D01*
X105162350Y-136903269D01*
X105228677Y-137236715D01*
X105358781Y-137550814D01*
X105547663Y-137833496D01*
X105788064Y-138073897D01*
X106070746Y-138262779D01*
X106384845Y-138392883D01*
X106718291Y-138459210D01*
X107058269Y-138459210D01*
X107391715Y-138392883D01*
X107705814Y-138262779D01*
X107988496Y-138073897D01*
X108137960Y-137924433D01*
X108287424Y-138073897D01*
X108570106Y-138262779D01*
X108884205Y-138392883D01*
X109217651Y-138459210D01*
X109557629Y-138459210D01*
X109891075Y-138392883D01*
X110205174Y-138262779D01*
X110487856Y-138073897D01*
X110728257Y-137833496D01*
X110917139Y-137550814D01*
X110929333Y-137521375D01*
X111100090Y-137692132D01*
X111302273Y-137827227D01*
X111526927Y-137920281D01*
X111765418Y-137967720D01*
X112008582Y-137967720D01*
X112247073Y-137920281D01*
X112471727Y-137827227D01*
X112673910Y-137692132D01*
X112844667Y-137521375D01*
X112856861Y-137550814D01*
X113045743Y-137833496D01*
X113286144Y-138073897D01*
X113568826Y-138262779D01*
X113882925Y-138392883D01*
X114216371Y-138459210D01*
X114556349Y-138459210D01*
X114889795Y-138392883D01*
X115203894Y-138262779D01*
X115486576Y-138073897D01*
X115636040Y-137924433D01*
X115785504Y-138073897D01*
X116068186Y-138262779D01*
X116382285Y-138392883D01*
X116715731Y-138459210D01*
X117055709Y-138459210D01*
X117186041Y-138433285D01*
X120371000Y-138433285D01*
X120371000Y-139188715D01*
X120518377Y-139929628D01*
X120807467Y-140627554D01*
X121227161Y-141255670D01*
X121761330Y-141789839D01*
X122389446Y-142209533D01*
X123087372Y-142498623D01*
X123828285Y-142646000D01*
X124583715Y-142646000D01*
X125324628Y-142498623D01*
X126022554Y-142209533D01*
X126650670Y-141789839D01*
X127184839Y-141255670D01*
X127604533Y-140627554D01*
X127893623Y-139929628D01*
X128041000Y-139188715D01*
X128041000Y-138433285D01*
X127893623Y-137692372D01*
X127604533Y-136994446D01*
X127184839Y-136366330D01*
X126650670Y-135832161D01*
X126022554Y-135412467D01*
X125324628Y-135123377D01*
X124583715Y-134976000D01*
X123828285Y-134976000D01*
X123087372Y-135123377D01*
X122389446Y-135412467D01*
X121761330Y-135832161D01*
X121227161Y-136366330D01*
X120807467Y-136994446D01*
X120518377Y-137692372D01*
X120371000Y-138433285D01*
X117186041Y-138433285D01*
X117389155Y-138392883D01*
X117703254Y-138262779D01*
X117985936Y-138073897D01*
X118226337Y-137833496D01*
X118415219Y-137550814D01*
X118545323Y-137236715D01*
X118611650Y-136903269D01*
X118611650Y-136563291D01*
X118545323Y-136229845D01*
X118415219Y-135915746D01*
X118226337Y-135633064D01*
X117985936Y-135392663D01*
X117703254Y-135203781D01*
X117389155Y-135073677D01*
X117055709Y-135007350D01*
X116715731Y-135007350D01*
X116382285Y-135073677D01*
X116068186Y-135203781D01*
X115785504Y-135392663D01*
X115636040Y-135542127D01*
X115486576Y-135392663D01*
X115203894Y-135203781D01*
X114889795Y-135073677D01*
X114556349Y-135007350D01*
X114216371Y-135007350D01*
X113882925Y-135073677D01*
X113568826Y-135203781D01*
X113286144Y-135392663D01*
X113045743Y-135633064D01*
X112856861Y-135915746D01*
X112844667Y-135945185D01*
X112673910Y-135774428D01*
X112471727Y-135639333D01*
X112247073Y-135546279D01*
X112008582Y-135498840D01*
X111765418Y-135498840D01*
X111526927Y-135546279D01*
X111302273Y-135639333D01*
X111100090Y-135774428D01*
X110929333Y-135945185D01*
X110917139Y-135915746D01*
X110728257Y-135633064D01*
X110487856Y-135392663D01*
X110205174Y-135203781D01*
X109891075Y-135073677D01*
X109557629Y-135007350D01*
X109217651Y-135007350D01*
X108884205Y-135073677D01*
X108570106Y-135203781D01*
X108287424Y-135392663D01*
X108137960Y-135542127D01*
X107988496Y-135392663D01*
X107705814Y-135203781D01*
X107391715Y-135073677D01*
X107058269Y-135007350D01*
X106718291Y-135007350D01*
X106384845Y-135073677D01*
X106070746Y-135203781D01*
X105788064Y-135392663D01*
X105547663Y-135633064D01*
X105358781Y-135915746D01*
X105228677Y-136229845D01*
X105162350Y-136563291D01*
X99422615Y-136563291D01*
X99494340Y-136202710D01*
X99494340Y-135577290D01*
X99372326Y-134963887D01*
X99132988Y-134386074D01*
X98785523Y-133866056D01*
X98343284Y-133423817D01*
X97823266Y-133076352D01*
X97245453Y-132837014D01*
X96632050Y-132715000D01*
X96006630Y-132715000D01*
X95393227Y-132837014D01*
X94815414Y-133076352D01*
X94295396Y-133423817D01*
X93853157Y-133866056D01*
X93505692Y-134386074D01*
X93266354Y-134963887D01*
X93144340Y-135577290D01*
X90912348Y-135577290D01*
X90925352Y-135534422D01*
X90937612Y-135409940D01*
X90937612Y-133530340D01*
X90925352Y-133405858D01*
X90889042Y-133286160D01*
X90830077Y-133175846D01*
X90750725Y-133079155D01*
X90654034Y-132999803D01*
X90543720Y-132940838D01*
X90424022Y-132904528D01*
X90299540Y-132892268D01*
X88419940Y-132892268D01*
X88295458Y-132904528D01*
X88175760Y-132940838D01*
X88065446Y-132999803D01*
X87968755Y-133079155D01*
X87889403Y-133175846D01*
X87830438Y-133286160D01*
X87794128Y-133405858D01*
X87790299Y-133444735D01*
X87592477Y-133246913D01*
X87334548Y-133074570D01*
X87047952Y-132955858D01*
X86743704Y-132895340D01*
X86433496Y-132895340D01*
X86129248Y-132955858D01*
X85842652Y-133074570D01*
X85584723Y-133246913D01*
X85365373Y-133466263D01*
X85204300Y-133707325D01*
X85043227Y-133466263D01*
X84823877Y-133246913D01*
X84565948Y-133074570D01*
X84279352Y-132955858D01*
X83975104Y-132895340D01*
X83664896Y-132895340D01*
X83360648Y-132955858D01*
X83074052Y-133074570D01*
X82816123Y-133246913D01*
X82596773Y-133466263D01*
X82435700Y-133707325D01*
X82274627Y-133466263D01*
X82055277Y-133246913D01*
X81797348Y-133074570D01*
X81510752Y-132955858D01*
X81206504Y-132895340D01*
X80896296Y-132895340D01*
X80592048Y-132955858D01*
X80305452Y-133074570D01*
X80047523Y-133246913D01*
X79828173Y-133466263D01*
X79665316Y-133709996D01*
X79630983Y-133645763D01*
X79372736Y-133557269D01*
X78459865Y-134470140D01*
X79372736Y-135383011D01*
X79630983Y-135294517D01*
X79663388Y-135227399D01*
X79828173Y-135474017D01*
X80047523Y-135693367D01*
X80305452Y-135865710D01*
X80592048Y-135984422D01*
X80896296Y-136044940D01*
X81206504Y-136044940D01*
X81510752Y-135984422D01*
X81797348Y-135865710D01*
X82055277Y-135693367D01*
X82274627Y-135474017D01*
X82435700Y-135232955D01*
X82596773Y-135474017D01*
X82816123Y-135693367D01*
X83074052Y-135865710D01*
X83360648Y-135984422D01*
X83664896Y-136044940D01*
X83975104Y-136044940D01*
X84279352Y-135984422D01*
X84565948Y-135865710D01*
X84823877Y-135693367D01*
X85043227Y-135474017D01*
X85204300Y-135232955D01*
X85365373Y-135474017D01*
X85584723Y-135693367D01*
X85842652Y-135865710D01*
X86129248Y-135984422D01*
X86433496Y-136044940D01*
X86743704Y-136044940D01*
X87047952Y-135984422D01*
X87334548Y-135865710D01*
X87592477Y-135693367D01*
X87790299Y-135495545D01*
X87794128Y-135534422D01*
X87830438Y-135654120D01*
X87873702Y-135735060D01*
X87812716Y-135735060D01*
X87508468Y-135795578D01*
X87221872Y-135914290D01*
X86963943Y-136086633D01*
X86744593Y-136305983D01*
X86583520Y-136547045D01*
X86422447Y-136305983D01*
X86203097Y-136086633D01*
X85945168Y-135914290D01*
X85658572Y-135795578D01*
X85354324Y-135735060D01*
X85044116Y-135735060D01*
X84739868Y-135795578D01*
X84453272Y-135914290D01*
X84195343Y-136086633D01*
X83975993Y-136305983D01*
X83820000Y-136539443D01*
X83664007Y-136305983D01*
X83444657Y-136086633D01*
X83186728Y-135914290D01*
X82900132Y-135795578D01*
X82595884Y-135735060D01*
X82285676Y-135735060D01*
X81981428Y-135795578D01*
X81694832Y-135914290D01*
X81436903Y-136086633D01*
X81217553Y-136305983D01*
X81056480Y-136547045D01*
X80895407Y-136305983D01*
X80676057Y-136086633D01*
X80418128Y-135914290D01*
X80131532Y-135795578D01*
X79827284Y-135735060D01*
X79517076Y-135735060D01*
X79212828Y-135795578D01*
X78926232Y-135914290D01*
X78668303Y-136086633D01*
X78448953Y-136305983D01*
X78276610Y-136563912D01*
X78157898Y-136850508D01*
X78097380Y-137154756D01*
X74233375Y-137154756D01*
X74373646Y-136816113D01*
X74495660Y-136202710D01*
X74495660Y-135577290D01*
X74492742Y-135562616D01*
X77367389Y-135562616D01*
X77455883Y-135820863D01*
X77735236Y-135955737D01*
X78035535Y-136033521D01*
X78345237Y-136051224D01*
X78652444Y-136008167D01*
X78945346Y-135906005D01*
X79104637Y-135820863D01*
X79193131Y-135562616D01*
X78280260Y-134649745D01*
X77367389Y-135562616D01*
X74492742Y-135562616D01*
X74373646Y-134963887D01*
X74196044Y-134535117D01*
X76699176Y-134535117D01*
X76742233Y-134842324D01*
X76844395Y-135135226D01*
X76929537Y-135294517D01*
X77187784Y-135383011D01*
X78100655Y-134470140D01*
X77187784Y-133557269D01*
X76929537Y-133645763D01*
X76794663Y-133925116D01*
X76716879Y-134225415D01*
X76699176Y-134535117D01*
X74196044Y-134535117D01*
X74134308Y-134386074D01*
X73786843Y-133866056D01*
X73344604Y-133423817D01*
X73275532Y-133377664D01*
X77367389Y-133377664D01*
X78280260Y-134290535D01*
X79193131Y-133377664D01*
X79104637Y-133119417D01*
X78825284Y-132984543D01*
X78524985Y-132906759D01*
X78215283Y-132889056D01*
X77908076Y-132932113D01*
X77615174Y-133034275D01*
X77455883Y-133119417D01*
X77367389Y-133377664D01*
X73275532Y-133377664D01*
X72824586Y-133076352D01*
X72246773Y-132837014D01*
X71633370Y-132715000D01*
X71007950Y-132715000D01*
X70394547Y-132837014D01*
X69816734Y-133076352D01*
X69296716Y-133423817D01*
X68854477Y-133866056D01*
X68507012Y-134386074D01*
X68267674Y-134963887D01*
X68145660Y-135577290D01*
X61291731Y-135577290D01*
X61317072Y-135320000D01*
X61317072Y-133570000D01*
X61287999Y-133274814D01*
X61201896Y-132990972D01*
X61062073Y-132729382D01*
X60873903Y-132500097D01*
X60644618Y-132311927D01*
X60383028Y-132172104D01*
X60099186Y-132086001D01*
X59804000Y-132056928D01*
X58054000Y-132056928D01*
X57758814Y-132086001D01*
X57474972Y-132172104D01*
X57213382Y-132311927D01*
X56984097Y-132500097D01*
X56795927Y-132729382D01*
X56656104Y-132990972D01*
X56617072Y-133119643D01*
X56617072Y-129695000D01*
X56604812Y-129570518D01*
X56568502Y-129450820D01*
X56509537Y-129340506D01*
X56430185Y-129243815D01*
X56333494Y-129164463D01*
X56223180Y-129105498D01*
X56103482Y-129069188D01*
X55979000Y-129056928D01*
X52479000Y-129056928D01*
X52354518Y-129069188D01*
X52234820Y-129105498D01*
X52124506Y-129164463D01*
X52027815Y-129243815D01*
X51948463Y-129340506D01*
X51889498Y-129450820D01*
X51853188Y-129570518D01*
X51840928Y-129695000D01*
X33528000Y-129695000D01*
X33528000Y-125578816D01*
X77365000Y-125578816D01*
X77365000Y-125881184D01*
X77423989Y-126177743D01*
X77539701Y-126457095D01*
X77707688Y-126708505D01*
X77921495Y-126922312D01*
X78172905Y-127090299D01*
X78452257Y-127206011D01*
X78748816Y-127265000D01*
X79051184Y-127265000D01*
X79347743Y-127206011D01*
X79627095Y-127090299D01*
X79878505Y-126922312D01*
X80092312Y-126708505D01*
X80150000Y-126622169D01*
X80207688Y-126708505D01*
X80421495Y-126922312D01*
X80672905Y-127090299D01*
X80952257Y-127206011D01*
X81248816Y-127265000D01*
X81551184Y-127265000D01*
X81847743Y-127206011D01*
X82127095Y-127090299D01*
X82378505Y-126922312D01*
X82592312Y-126708505D01*
X82650000Y-126622169D01*
X82707688Y-126708505D01*
X82921495Y-126922312D01*
X83172905Y-127090299D01*
X83452257Y-127206011D01*
X83748816Y-127265000D01*
X84051184Y-127265000D01*
X84347743Y-127206011D01*
X84627095Y-127090299D01*
X84878505Y-126922312D01*
X85092312Y-126708505D01*
X85150000Y-126622169D01*
X85207688Y-126708505D01*
X85421495Y-126922312D01*
X85672905Y-127090299D01*
X85952257Y-127206011D01*
X86248816Y-127265000D01*
X86551184Y-127265000D01*
X86847743Y-127206011D01*
X87127095Y-127090299D01*
X87378505Y-126922312D01*
X87487571Y-126813246D01*
X87514966Y-126864498D01*
X87627896Y-127002104D01*
X87765502Y-127115034D01*
X87922496Y-127198949D01*
X88092844Y-127250624D01*
X88270000Y-127268072D01*
X89530000Y-127268072D01*
X89707156Y-127250624D01*
X89877504Y-127198949D01*
X90034498Y-127115034D01*
X90172104Y-127002104D01*
X90285034Y-126864498D01*
X90368949Y-126707504D01*
X90420624Y-126537156D01*
X90438072Y-126360000D01*
X90438072Y-125100000D01*
X90420624Y-124922844D01*
X90368949Y-124752496D01*
X90285034Y-124595502D01*
X90172104Y-124457896D01*
X90034498Y-124344966D01*
X89983246Y-124317571D01*
X90092312Y-124208505D01*
X90260299Y-123957095D01*
X90376011Y-123677743D01*
X90435000Y-123381184D01*
X90435000Y-123078816D01*
X90376011Y-122782257D01*
X90260299Y-122502905D01*
X90092312Y-122251495D01*
X89878505Y-122037688D01*
X89627095Y-121869701D01*
X89347743Y-121753989D01*
X89051184Y-121695000D01*
X88748816Y-121695000D01*
X88452257Y-121753989D01*
X88172905Y-121869701D01*
X87921495Y-122037688D01*
X87707688Y-122251495D01*
X87650000Y-122337831D01*
X87592312Y-122251495D01*
X87378505Y-122037688D01*
X87127095Y-121869701D01*
X86847743Y-121753989D01*
X86551184Y-121695000D01*
X86248816Y-121695000D01*
X85952257Y-121753989D01*
X85672905Y-121869701D01*
X85421495Y-122037688D01*
X85207688Y-122251495D01*
X85150000Y-122337831D01*
X85092312Y-122251495D01*
X84878505Y-122037688D01*
X84627095Y-121869701D01*
X84347743Y-121753989D01*
X84051184Y-121695000D01*
X83748816Y-121695000D01*
X83452257Y-121753989D01*
X83172905Y-121869701D01*
X82921495Y-122037688D01*
X82707688Y-122251495D01*
X82650000Y-122337831D01*
X82592312Y-122251495D01*
X82378505Y-122037688D01*
X82127095Y-121869701D01*
X81847743Y-121753989D01*
X81551184Y-121695000D01*
X81248816Y-121695000D01*
X80952257Y-121753989D01*
X80672905Y-121869701D01*
X80421495Y-122037688D01*
X80207688Y-122251495D01*
X80112262Y-122394310D01*
X79964080Y-122345525D01*
X79079605Y-123230000D01*
X79964080Y-124114475D01*
X80112262Y-124065690D01*
X80207688Y-124208505D01*
X80421495Y-124422312D01*
X80507831Y-124480000D01*
X80421495Y-124537688D01*
X80207688Y-124751495D01*
X80150000Y-124837831D01*
X80092312Y-124751495D01*
X79878505Y-124537688D01*
X79735690Y-124442262D01*
X79784475Y-124294080D01*
X78900000Y-123409605D01*
X78015525Y-124294080D01*
X78064310Y-124442262D01*
X77921495Y-124537688D01*
X77707688Y-124751495D01*
X77539701Y-125002905D01*
X77423989Y-125282257D01*
X77365000Y-125578816D01*
X33528000Y-125578816D01*
X33528000Y-121216495D01*
X41588000Y-121216495D01*
X41588000Y-121607505D01*
X41664282Y-121991003D01*
X41813915Y-122352250D01*
X42031149Y-122677364D01*
X42307636Y-122953851D01*
X42632750Y-123171085D01*
X42993997Y-123320718D01*
X43377495Y-123397000D01*
X43768505Y-123397000D01*
X44152003Y-123320718D01*
X44513250Y-123171085D01*
X44838364Y-122953851D01*
X45114851Y-122677364D01*
X45332085Y-122352250D01*
X45481718Y-121991003D01*
X45553000Y-121632642D01*
X45624282Y-121991003D01*
X45773915Y-122352250D01*
X45991149Y-122677364D01*
X46267636Y-122953851D01*
X46592750Y-123171085D01*
X46953997Y-123320718D01*
X47337495Y-123397000D01*
X47728505Y-123397000D01*
X48112003Y-123320718D01*
X48473250Y-123171085D01*
X48798364Y-122953851D01*
X49074851Y-122677364D01*
X49292085Y-122352250D01*
X49441718Y-121991003D01*
X49513000Y-121632642D01*
X49584282Y-121991003D01*
X49733915Y-122352250D01*
X49951149Y-122677364D01*
X50227636Y-122953851D01*
X50552750Y-123171085D01*
X50913997Y-123320718D01*
X51297495Y-123397000D01*
X51688505Y-123397000D01*
X52072003Y-123320718D01*
X52433250Y-123171085D01*
X52758364Y-122953851D01*
X53034851Y-122677364D01*
X53252085Y-122352250D01*
X53401718Y-121991003D01*
X53473000Y-121632642D01*
X53544282Y-121991003D01*
X53693915Y-122352250D01*
X53911149Y-122677364D01*
X54187636Y-122953851D01*
X54512750Y-123171085D01*
X54873997Y-123320718D01*
X55257495Y-123397000D01*
X55648505Y-123397000D01*
X56032003Y-123320718D01*
X56393250Y-123171085D01*
X56718364Y-122953851D01*
X56994851Y-122677364D01*
X57212085Y-122352250D01*
X57361718Y-121991003D01*
X57433000Y-121632642D01*
X57504282Y-121991003D01*
X57653915Y-122352250D01*
X57871149Y-122677364D01*
X58147636Y-122953851D01*
X58472750Y-123171085D01*
X58833997Y-123320718D01*
X59217495Y-123397000D01*
X59608505Y-123397000D01*
X59992003Y-123320718D01*
X60353250Y-123171085D01*
X60678364Y-122953851D01*
X60954851Y-122677364D01*
X61172085Y-122352250D01*
X61321718Y-121991003D01*
X61384928Y-121673223D01*
X61384928Y-122511999D01*
X61401992Y-122685253D01*
X61452529Y-122851850D01*
X61534595Y-123005386D01*
X61645039Y-123139961D01*
X61779614Y-123250405D01*
X61933150Y-123332471D01*
X62099747Y-123383008D01*
X62273001Y-123400072D01*
X64472999Y-123400072D01*
X64646253Y-123383008D01*
X64812850Y-123332471D01*
X64880048Y-123296553D01*
X77359009Y-123296553D01*
X77401603Y-123595907D01*
X77501778Y-123881199D01*
X77581739Y-124030792D01*
X77835920Y-124114475D01*
X78720395Y-123230000D01*
X77835920Y-122345525D01*
X77581739Y-122429208D01*
X77450842Y-122701775D01*
X77375635Y-122994642D01*
X77359009Y-123296553D01*
X64880048Y-123296553D01*
X64966386Y-123250405D01*
X65100961Y-123139961D01*
X65211405Y-123005386D01*
X65293471Y-122851850D01*
X65344008Y-122685253D01*
X65361072Y-122511999D01*
X65361072Y-122165920D01*
X78015525Y-122165920D01*
X78900000Y-123050395D01*
X79784475Y-122165920D01*
X79700792Y-121911739D01*
X79428225Y-121780842D01*
X79135358Y-121705635D01*
X78833447Y-121689009D01*
X78534093Y-121731603D01*
X78248801Y-121831778D01*
X78099208Y-121911739D01*
X78015525Y-122165920D01*
X65361072Y-122165920D01*
X65361072Y-120312001D01*
X65344008Y-120138747D01*
X65293471Y-119972150D01*
X65211405Y-119818614D01*
X65100961Y-119684039D01*
X64966386Y-119573595D01*
X64812850Y-119491529D01*
X64646253Y-119440992D01*
X64472999Y-119423928D01*
X62273001Y-119423928D01*
X62099747Y-119440992D01*
X61933150Y-119491529D01*
X61779614Y-119573595D01*
X61645039Y-119684039D01*
X61534595Y-119818614D01*
X61452529Y-119972150D01*
X61401992Y-120138747D01*
X61384928Y-120312001D01*
X61384928Y-121150777D01*
X61321718Y-120832997D01*
X61172085Y-120471750D01*
X60954851Y-120146636D01*
X60678364Y-119870149D01*
X60353250Y-119652915D01*
X59992003Y-119503282D01*
X59608505Y-119427000D01*
X59217495Y-119427000D01*
X58833997Y-119503282D01*
X58472750Y-119652915D01*
X58147636Y-119870149D01*
X57871149Y-120146636D01*
X57653915Y-120471750D01*
X57504282Y-120832997D01*
X57433000Y-121191358D01*
X57361718Y-120832997D01*
X57212085Y-120471750D01*
X56994851Y-120146636D01*
X56718364Y-119870149D01*
X56393250Y-119652915D01*
X56032003Y-119503282D01*
X55648505Y-119427000D01*
X55257495Y-119427000D01*
X54873997Y-119503282D01*
X54512750Y-119652915D01*
X54187636Y-119870149D01*
X53911149Y-120146636D01*
X53693915Y-120471750D01*
X53544282Y-120832997D01*
X53473000Y-121191358D01*
X53401718Y-120832997D01*
X53252085Y-120471750D01*
X53034851Y-120146636D01*
X52758364Y-119870149D01*
X52433250Y-119652915D01*
X52072003Y-119503282D01*
X51688505Y-119427000D01*
X51297495Y-119427000D01*
X50913997Y-119503282D01*
X50552750Y-119652915D01*
X50227636Y-119870149D01*
X49951149Y-120146636D01*
X49733915Y-120471750D01*
X49584282Y-120832997D01*
X49513000Y-121191358D01*
X49441718Y-120832997D01*
X49292085Y-120471750D01*
X49074851Y-120146636D01*
X48798364Y-119870149D01*
X48473250Y-119652915D01*
X48112003Y-119503282D01*
X47728505Y-119427000D01*
X47337495Y-119427000D01*
X46953997Y-119503282D01*
X46592750Y-119652915D01*
X46267636Y-119870149D01*
X45991149Y-120146636D01*
X45773915Y-120471750D01*
X45624282Y-120832997D01*
X45553000Y-121191358D01*
X45481718Y-120832997D01*
X45332085Y-120471750D01*
X45114851Y-120146636D01*
X44838364Y-119870149D01*
X44513250Y-119652915D01*
X44152003Y-119503282D01*
X43768505Y-119427000D01*
X43377495Y-119427000D01*
X42993997Y-119503282D01*
X42632750Y-119652915D01*
X42307636Y-119870149D01*
X42031149Y-120146636D01*
X41813915Y-120471750D01*
X41664282Y-120832997D01*
X41588000Y-121216495D01*
X33528000Y-121216495D01*
X33528000Y-119417000D01*
X107858928Y-119417000D01*
X107858928Y-120867000D01*
X107875992Y-121040254D01*
X107926528Y-121206850D01*
X108008595Y-121360386D01*
X108119038Y-121494962D01*
X108253614Y-121605405D01*
X108407150Y-121687472D01*
X108573746Y-121738008D01*
X108747000Y-121755072D01*
X109947000Y-121755072D01*
X110120254Y-121738008D01*
X110286850Y-121687472D01*
X110440386Y-121605405D01*
X110574962Y-121494962D01*
X110685405Y-121360386D01*
X110739777Y-121258663D01*
X110791866Y-121322134D01*
X111017987Y-121507706D01*
X111275967Y-121645599D01*
X111555890Y-121730513D01*
X111847000Y-121759185D01*
X112138111Y-121730513D01*
X112418034Y-121645599D01*
X112676014Y-121507706D01*
X112902134Y-121322134D01*
X113087706Y-121096014D01*
X113097000Y-121078626D01*
X113106294Y-121096014D01*
X113291866Y-121322134D01*
X113517987Y-121507706D01*
X113775967Y-121645599D01*
X114055890Y-121730513D01*
X114347000Y-121759185D01*
X114638111Y-121730513D01*
X114918034Y-121645599D01*
X115176014Y-121507706D01*
X115402134Y-121322134D01*
X115587706Y-121096014D01*
X115725599Y-120838033D01*
X115810513Y-120558110D01*
X115832000Y-120339949D01*
X115832000Y-119944050D01*
X115810513Y-119725889D01*
X115725599Y-119445966D01*
X115587706Y-119187986D01*
X115402134Y-118961866D01*
X115176013Y-118776294D01*
X114918033Y-118638401D01*
X114638110Y-118553487D01*
X114347000Y-118524815D01*
X114055889Y-118553487D01*
X113775966Y-118638401D01*
X113517986Y-118776294D01*
X113291866Y-118961866D01*
X113106294Y-119187987D01*
X113097000Y-119205374D01*
X113087706Y-119187986D01*
X112902134Y-118961866D01*
X112676013Y-118776294D01*
X112418033Y-118638401D01*
X112138110Y-118553487D01*
X111847000Y-118524815D01*
X111555889Y-118553487D01*
X111275966Y-118638401D01*
X111017986Y-118776294D01*
X110791866Y-118961866D01*
X110739777Y-119025337D01*
X110685405Y-118923614D01*
X110574962Y-118789038D01*
X110440386Y-118678595D01*
X110286850Y-118596528D01*
X110120254Y-118545992D01*
X109947000Y-118528928D01*
X108747000Y-118528928D01*
X108573746Y-118545992D01*
X108407150Y-118596528D01*
X108253614Y-118678595D01*
X108119038Y-118789038D01*
X108008595Y-118923614D01*
X107926528Y-119077150D01*
X107875992Y-119243746D01*
X107858928Y-119417000D01*
X33528000Y-119417000D01*
X33528000Y-110604838D01*
X69776767Y-110604838D01*
X69914724Y-110905044D01*
X70263967Y-111080882D01*
X70640804Y-111185207D01*
X71030753Y-111214009D01*
X71418828Y-111166184D01*
X71790116Y-111043568D01*
X72049276Y-110905044D01*
X72187233Y-110604838D01*
X73736767Y-110604838D01*
X73874724Y-110905044D01*
X74223967Y-111080882D01*
X74600804Y-111185207D01*
X74990753Y-111214009D01*
X75378828Y-111166184D01*
X75750116Y-111043568D01*
X76009276Y-110905044D01*
X76147233Y-110604838D01*
X77696767Y-110604838D01*
X77834724Y-110905044D01*
X78183967Y-111080882D01*
X78560804Y-111185207D01*
X78950753Y-111214009D01*
X79338828Y-111166184D01*
X79710116Y-111043568D01*
X79969276Y-110905044D01*
X80107233Y-110604838D01*
X81656767Y-110604838D01*
X81794724Y-110905044D01*
X82143967Y-111080882D01*
X82520804Y-111185207D01*
X82910753Y-111214009D01*
X83298828Y-111166184D01*
X83670116Y-111043568D01*
X83929276Y-110905044D01*
X84067233Y-110604838D01*
X85616767Y-110604838D01*
X85754724Y-110905044D01*
X86103967Y-111080882D01*
X86480804Y-111185207D01*
X86870753Y-111214009D01*
X87258828Y-111166184D01*
X87630116Y-111043568D01*
X87889276Y-110905044D01*
X88027233Y-110604838D01*
X89576767Y-110604838D01*
X89714724Y-110905044D01*
X90063967Y-111080882D01*
X90440804Y-111185207D01*
X90830753Y-111214009D01*
X91218828Y-111166184D01*
X91590116Y-111043568D01*
X91849276Y-110905044D01*
X91987233Y-110604838D01*
X90782000Y-109399605D01*
X89576767Y-110604838D01*
X88027233Y-110604838D01*
X86822000Y-109399605D01*
X85616767Y-110604838D01*
X84067233Y-110604838D01*
X82862000Y-109399605D01*
X81656767Y-110604838D01*
X80107233Y-110604838D01*
X78902000Y-109399605D01*
X77696767Y-110604838D01*
X76147233Y-110604838D01*
X74942000Y-109399605D01*
X73736767Y-110604838D01*
X72187233Y-110604838D01*
X70982000Y-109399605D01*
X69776767Y-110604838D01*
X33528000Y-110604838D01*
X33528000Y-109268753D01*
X68987991Y-109268753D01*
X69035816Y-109656828D01*
X69158432Y-110028116D01*
X69296956Y-110287276D01*
X69597162Y-110425233D01*
X70802395Y-109220000D01*
X71161605Y-109220000D01*
X72366838Y-110425233D01*
X72667044Y-110287276D01*
X72842882Y-109938033D01*
X72947207Y-109561196D01*
X72961006Y-109374366D01*
X72995816Y-109656828D01*
X73118432Y-110028116D01*
X73256956Y-110287276D01*
X73557162Y-110425233D01*
X74762395Y-109220000D01*
X75121605Y-109220000D01*
X76326838Y-110425233D01*
X76627044Y-110287276D01*
X76802882Y-109938033D01*
X76907207Y-109561196D01*
X76921006Y-109374366D01*
X76955816Y-109656828D01*
X77078432Y-110028116D01*
X77216956Y-110287276D01*
X77517162Y-110425233D01*
X78722395Y-109220000D01*
X79081605Y-109220000D01*
X80286838Y-110425233D01*
X80587044Y-110287276D01*
X80762882Y-109938033D01*
X80867207Y-109561196D01*
X80881006Y-109374366D01*
X80915816Y-109656828D01*
X81038432Y-110028116D01*
X81176956Y-110287276D01*
X81477162Y-110425233D01*
X82682395Y-109220000D01*
X83041605Y-109220000D01*
X84246838Y-110425233D01*
X84547044Y-110287276D01*
X84722882Y-109938033D01*
X84827207Y-109561196D01*
X84841006Y-109374366D01*
X84875816Y-109656828D01*
X84998432Y-110028116D01*
X85136956Y-110287276D01*
X85437162Y-110425233D01*
X86642395Y-109220000D01*
X87001605Y-109220000D01*
X88206838Y-110425233D01*
X88507044Y-110287276D01*
X88682882Y-109938033D01*
X88787207Y-109561196D01*
X88801006Y-109374366D01*
X88835816Y-109656828D01*
X88958432Y-110028116D01*
X89096956Y-110287276D01*
X89397162Y-110425233D01*
X90602395Y-109220000D01*
X90961605Y-109220000D01*
X92166838Y-110425233D01*
X92467044Y-110287276D01*
X92642882Y-109938033D01*
X92747207Y-109561196D01*
X92763028Y-109347002D01*
X92915748Y-109347002D01*
X92757000Y-109505750D01*
X92753928Y-110570000D01*
X92766188Y-110694482D01*
X92802498Y-110814180D01*
X92861463Y-110924494D01*
X92940815Y-111021185D01*
X93037506Y-111100537D01*
X93147820Y-111159502D01*
X93267518Y-111195812D01*
X93392000Y-111208072D01*
X94456250Y-111205000D01*
X94615000Y-111046250D01*
X94615000Y-109347000D01*
X94869000Y-109347000D01*
X94869000Y-111046250D01*
X95027750Y-111205000D01*
X96092000Y-111208072D01*
X96216482Y-111195812D01*
X96336180Y-111159502D01*
X96446494Y-111100537D01*
X96543185Y-111021185D01*
X96622537Y-110924494D01*
X96681502Y-110814180D01*
X96717812Y-110694482D01*
X96730072Y-110570000D01*
X96727000Y-109505750D01*
X96568250Y-109347000D01*
X94869000Y-109347000D01*
X94615000Y-109347000D01*
X94595000Y-109347000D01*
X94595000Y-109093000D01*
X94615000Y-109093000D01*
X94615000Y-107393750D01*
X94869000Y-107393750D01*
X94869000Y-109093000D01*
X96568250Y-109093000D01*
X96727000Y-108934250D01*
X96730072Y-107870000D01*
X96717812Y-107745518D01*
X96681502Y-107625820D01*
X96622537Y-107515506D01*
X96543185Y-107418815D01*
X96446494Y-107339463D01*
X96336180Y-107280498D01*
X96216482Y-107244188D01*
X96092000Y-107231928D01*
X95027750Y-107235000D01*
X94869000Y-107393750D01*
X94615000Y-107393750D01*
X94456250Y-107235000D01*
X93392000Y-107231928D01*
X93267518Y-107244188D01*
X93147820Y-107280498D01*
X93037506Y-107339463D01*
X92940815Y-107418815D01*
X92861463Y-107515506D01*
X92802498Y-107625820D01*
X92766188Y-107745518D01*
X92753928Y-107870000D01*
X92757000Y-108934250D01*
X92915748Y-109092998D01*
X92766366Y-109092998D01*
X92728184Y-108783172D01*
X92605568Y-108411884D01*
X92467044Y-108152724D01*
X92166838Y-108014767D01*
X90961605Y-109220000D01*
X90602395Y-109220000D01*
X89397162Y-108014767D01*
X89096956Y-108152724D01*
X88921118Y-108501967D01*
X88816793Y-108878804D01*
X88802994Y-109065634D01*
X88768184Y-108783172D01*
X88645568Y-108411884D01*
X88507044Y-108152724D01*
X88206838Y-108014767D01*
X87001605Y-109220000D01*
X86642395Y-109220000D01*
X85437162Y-108014767D01*
X85136956Y-108152724D01*
X84961118Y-108501967D01*
X84856793Y-108878804D01*
X84842994Y-109065634D01*
X84808184Y-108783172D01*
X84685568Y-108411884D01*
X84547044Y-108152724D01*
X84246838Y-108014767D01*
X83041605Y-109220000D01*
X82682395Y-109220000D01*
X81477162Y-108014767D01*
X81176956Y-108152724D01*
X81001118Y-108501967D01*
X80896793Y-108878804D01*
X80882994Y-109065634D01*
X80848184Y-108783172D01*
X80725568Y-108411884D01*
X80587044Y-108152724D01*
X80286838Y-108014767D01*
X79081605Y-109220000D01*
X78722395Y-109220000D01*
X77517162Y-108014767D01*
X77216956Y-108152724D01*
X77041118Y-108501967D01*
X76936793Y-108878804D01*
X76922994Y-109065634D01*
X76888184Y-108783172D01*
X76765568Y-108411884D01*
X76627044Y-108152724D01*
X76326838Y-108014767D01*
X75121605Y-109220000D01*
X74762395Y-109220000D01*
X73557162Y-108014767D01*
X73256956Y-108152724D01*
X73081118Y-108501967D01*
X72976793Y-108878804D01*
X72962994Y-109065634D01*
X72928184Y-108783172D01*
X72805568Y-108411884D01*
X72667044Y-108152724D01*
X72366838Y-108014767D01*
X71161605Y-109220000D01*
X70802395Y-109220000D01*
X69597162Y-108014767D01*
X69296956Y-108152724D01*
X69121118Y-108501967D01*
X69016793Y-108878804D01*
X68987991Y-109268753D01*
X33528000Y-109268753D01*
X33528000Y-107835162D01*
X69776767Y-107835162D01*
X70982000Y-109040395D01*
X72187233Y-107835162D01*
X73736767Y-107835162D01*
X74942000Y-109040395D01*
X76147233Y-107835162D01*
X77696767Y-107835162D01*
X78902000Y-109040395D01*
X80107233Y-107835162D01*
X81656767Y-107835162D01*
X82862000Y-109040395D01*
X84067233Y-107835162D01*
X85616767Y-107835162D01*
X86822000Y-109040395D01*
X88027233Y-107835162D01*
X89576767Y-107835162D01*
X90782000Y-109040395D01*
X91987233Y-107835162D01*
X91849276Y-107534956D01*
X91500033Y-107359118D01*
X91123196Y-107254793D01*
X90733247Y-107225991D01*
X90345172Y-107273816D01*
X89973884Y-107396432D01*
X89714724Y-107534956D01*
X89576767Y-107835162D01*
X88027233Y-107835162D01*
X87889276Y-107534956D01*
X87540033Y-107359118D01*
X87163196Y-107254793D01*
X86773247Y-107225991D01*
X86385172Y-107273816D01*
X86013884Y-107396432D01*
X85754724Y-107534956D01*
X85616767Y-107835162D01*
X84067233Y-107835162D01*
X83929276Y-107534956D01*
X83580033Y-107359118D01*
X83203196Y-107254793D01*
X82813247Y-107225991D01*
X82425172Y-107273816D01*
X82053884Y-107396432D01*
X81794724Y-107534956D01*
X81656767Y-107835162D01*
X80107233Y-107835162D01*
X79969276Y-107534956D01*
X79620033Y-107359118D01*
X79243196Y-107254793D01*
X78853247Y-107225991D01*
X78465172Y-107273816D01*
X78093884Y-107396432D01*
X77834724Y-107534956D01*
X77696767Y-107835162D01*
X76147233Y-107835162D01*
X76009276Y-107534956D01*
X75660033Y-107359118D01*
X75283196Y-107254793D01*
X74893247Y-107225991D01*
X74505172Y-107273816D01*
X74133884Y-107396432D01*
X73874724Y-107534956D01*
X73736767Y-107835162D01*
X72187233Y-107835162D01*
X72049276Y-107534956D01*
X71700033Y-107359118D01*
X71323196Y-107254793D01*
X70933247Y-107225991D01*
X70545172Y-107273816D01*
X70173884Y-107396432D01*
X69914724Y-107534956D01*
X69776767Y-107835162D01*
X33528000Y-107835162D01*
X33528000Y-103254285D01*
X34773000Y-103254285D01*
X34773000Y-104009715D01*
X34920377Y-104750628D01*
X35209467Y-105448554D01*
X35629161Y-106076670D01*
X36163330Y-106610839D01*
X36791446Y-107030533D01*
X37489372Y-107319623D01*
X38230285Y-107467000D01*
X38985715Y-107467000D01*
X39726628Y-107319623D01*
X40424554Y-107030533D01*
X41052670Y-106610839D01*
X41586839Y-106076670D01*
X42006533Y-105448554D01*
X42295623Y-104750628D01*
X42443000Y-104009715D01*
X42443000Y-103254285D01*
X120371000Y-103254285D01*
X120371000Y-104009715D01*
X120518377Y-104750628D01*
X120807467Y-105448554D01*
X121227161Y-106076670D01*
X121761330Y-106610839D01*
X122389446Y-107030533D01*
X123087372Y-107319623D01*
X123828285Y-107467000D01*
X124583715Y-107467000D01*
X125324628Y-107319623D01*
X126022554Y-107030533D01*
X126650670Y-106610839D01*
X127184839Y-106076670D01*
X127604533Y-105448554D01*
X127893623Y-104750628D01*
X128041000Y-104009715D01*
X128041000Y-103254285D01*
X127893623Y-102513372D01*
X127604533Y-101815446D01*
X127184839Y-101187330D01*
X126650670Y-100653161D01*
X126022554Y-100233467D01*
X125324628Y-99944377D01*
X124583715Y-99797000D01*
X123828285Y-99797000D01*
X123087372Y-99944377D01*
X122389446Y-100233467D01*
X121761330Y-100653161D01*
X121227161Y-101187330D01*
X120807467Y-101815446D01*
X120518377Y-102513372D01*
X120371000Y-103254285D01*
X42443000Y-103254285D01*
X42295623Y-102513372D01*
X42006533Y-101815446D01*
X41586839Y-101187330D01*
X41052670Y-100653161D01*
X40424554Y-100233467D01*
X39726628Y-99944377D01*
X38985715Y-99797000D01*
X38230285Y-99797000D01*
X37489372Y-99944377D01*
X36791446Y-100233467D01*
X36163330Y-100653161D01*
X35629161Y-101187330D01*
X35209467Y-101815446D01*
X34920377Y-102513372D01*
X34773000Y-103254285D01*
X33528000Y-103254285D01*
X33528000Y-98043833D01*
X129794000Y-97917167D01*
X129794000Y-144526000D01*
G37*
%TD.AperFunction*%
%TD*%
M02*
